<svg width="70" height="70" viewBox="0 0 70 70" fill="none" xmlns="http://www.w3.org/2000/svg">
<path d="M59.7487 10.2511C46.0798 -3.41705 23.9193 -3.41705 10.2511 10.2511C-3.41705 23.9193 -3.41705 46.0805 10.2511 59.7487C23.9193 73.4169 46.0798 73.4169 59.7487 59.7487C73.4169 46.0805 73.4169 23.9193 59.7487 10.2511ZM52.8753 12.6248L43.7753 21.7255C38.4729 18.212 31.5286 18.212 26.2261 21.7255L17.1246 12.6248C27.5474 4.27653 42.4525 4.27653 52.8753 12.6248ZM44.5453 34.9999C44.5453 40.2714 40.2714 44.5453 34.9999 44.5453C29.7285 44.5453 25.4546 40.2714 25.4546 34.9999C25.4546 29.7277 29.7285 25.4546 34.9999 25.4546C40.2714 25.4546 44.5453 29.7277 44.5453 34.9999ZM12.6248 17.1246L21.7255 26.2253C18.212 31.5278 18.212 38.4721 21.7255 43.7745L12.6248 52.8745C4.27653 42.4517 4.27653 27.5474 12.6248 17.1246ZM17.1246 57.3751L26.2254 48.2744C31.5278 51.7871 38.4721 51.7871 43.7745 48.2744L52.8745 57.3751C42.4525 65.7226 27.5474 65.7226 17.1246 57.3751ZM57.3751 52.8745L48.2744 43.7745C51.7871 38.4721 51.7871 31.5278 48.2744 26.2253L57.3751 17.1246C65.7226 27.5474 65.7226 42.4517 57.3751 52.8745Z" fill="#EC6E00"/>
</svg>
