<svg width="105" height="66" viewBox="0 0 105 66" fill="none" xmlns="http://www.w3.org/2000/svg">
<path d="M10.5 25.8389C10.5 26.7987 9.71292 27.5769 8.742 27.5769C7.77108 27.5769 6.984 28.355 6.984 29.3149V31.7706C6.984 32.7305 7.77108 33.5087 8.742 33.5087C9.71292 33.5087 10.5 34.2868 10.5 35.2467V55.7781C10.5 56.8018 11.3395 57.6317 12.375 57.6317H23.7155C24.5617 57.6317 25.2883 58.1991 25.6108 58.9726C27.3279 63.091 31.4232 66 36.201 66C40.979 66 45.0745 63.0908 46.7925 58.9721C47.1151 58.1989 47.8416 57.6317 48.6876 57.6317H74.765C75.6112 57.6317 76.3378 58.1991 76.6603 58.9726C78.3774 63.091 82.4727 66 87.2505 66C92.0283 66 96.1236 63.091 97.8407 58.9726C98.1632 58.1991 98.8898 57.6317 99.736 57.6317H103.125C104.161 57.6317 105 56.8018 105 55.778V29.2156C105 28.9279 104.932 28.6441 104.802 28.3867L96.3277 11.6293C96.0101 11.0013 95.3609 10.6045 94.6506 10.6045H76.0335C74.998 10.6045 74.1585 9.77463 74.1585 8.75087V1.85368C74.1585 0.829924 73.319 0 72.2835 0H12.375C11.3395 0 10.5 0.829922 10.5 1.85368V10.8937C10.5 11.9175 9.66053 12.7474 8.625 12.7474H1.875C0.839464 12.7474 0 13.5773 0 14.6011V16.8255C0 17.8493 0.839466 18.6792 1.875 18.6792H8.625C9.66054 18.6792 10.5 19.5091 10.5 20.5329V25.8389ZM36.201 60.0682C33.1875 60.0682 30.7365 57.6451 30.7365 54.6658C30.7365 51.6866 33.1875 49.2635 36.201 49.2635C39.2145 49.2635 41.6655 51.6866 41.6655 54.6658C41.6655 57.6451 39.2145 60.0682 36.201 60.0682ZM87.2505 60.0682C84.237 60.0682 81.786 57.6451 81.786 54.6658C81.786 51.6866 84.237 49.2635 87.2505 49.2635C90.2625 49.2635 92.715 51.6866 92.715 54.6658C92.715 57.6451 90.2625 60.0682 87.2505 60.0682ZM95.789 23.8293C96.4124 25.0619 95.5059 26.5121 94.112 26.5121H87.375C86.3395 26.5121 85.5 25.6822 85.5 24.6584V18.39C85.5 17.3663 86.3395 16.5363 87.375 16.5363H90.9413C91.6514 16.5363 92.3006 16.933 92.6183 17.5609L95.789 23.8293ZM77.625 16.5363C78.6605 16.5363 79.5 17.3663 79.5 18.39V30.5902C79.5 31.614 80.3395 32.4439 81.375 32.4439H97.125C98.1605 32.4439 99 33.2738 99 34.2976V51.3092C99 51.525 98.823 51.7 98.6047 51.7C98.4263 51.7 98.2707 51.5813 98.2193 51.4124C96.8011 46.7454 92.4263 43.3317 87.2505 43.3317C82.2783 43.3317 78.0453 46.4822 76.4614 50.8677C76.2862 51.3527 75.8355 51.7 75.3146 51.7C74.6769 51.7 74.16 51.1889 74.16 50.5585V18.39C74.16 17.3663 74.9995 16.5363 76.035 16.5363H77.625ZM16.5 7.78547C16.5 6.76171 17.3395 5.93178 18.375 5.93178H66.285C67.3205 5.93178 68.16 6.76171 68.16 7.78547V49.8463C68.16 50.87 67.3205 51.7 66.285 51.7H48.6861C47.8401 51.7 47.1136 51.1328 46.7911 50.3596C45.0732 46.2409 40.9789 43.3317 36.1995 43.3317C31.4203 43.3317 27.3261 46.2407 25.6092 50.3591C25.2868 51.1326 24.5602 51.7 23.714 51.7H18.375C17.3395 51.7 16.5 50.87 16.5 49.8463V35.3623C16.5 34.3386 17.3395 33.5087 18.375 33.5087H27.141C28.1765 33.5087 29.016 32.6787 29.016 31.655V29.4306C29.016 28.4068 28.1765 27.5769 27.141 27.5769H18.375C17.3395 27.5769 16.5 26.7469 16.5 25.7232V20.5329C16.5 19.5091 17.3395 18.6792 18.375 18.6792H20.157C21.1925 18.6792 22.032 17.8493 22.032 16.8255V14.6011C22.032 13.5773 21.1925 12.7474 20.157 12.7474H18.375C17.3395 12.7474 16.5 11.9175 16.5 10.8937V7.78547Z" fill="#EC6E00"/>
</svg>
