<svg width="78" height="78" viewBox="0 0 78 78" fill="none" xmlns="http://www.w3.org/2000/svg">
<path d="M66.3152 33.7014L55.6779 44.6184C55.4484 44.8458 55.2664 45.1165 55.1426 45.4148C55.0187 45.7131 54.9553 46.0331 54.9562 46.3561C54.9571 46.6791 55.0222 46.9987 55.1478 47.2964C55.2733 47.594 55.4567 47.8637 55.6875 48.0898C55.9182 48.316 56.1916 48.494 56.4917 48.6136C56.7918 48.7332 57.1128 48.7919 57.4358 48.7864C57.7589 48.7809 58.0776 48.7113 58.3735 48.5815C58.6694 48.4518 58.9366 48.2645 59.1594 48.0307L69.7699 37.1405C70.1464 36.7684 70.6545 36.5597 71.184 36.5597C71.7134 36.5597 72.2215 36.7684 72.598 37.1405C72.9635 37.5062 73.1689 38.002 73.1689 38.5189C73.1689 39.0358 72.9635 39.5316 72.598 39.8972L51.4113 60.9706H32.1067C31.8073 60.4629 31.4497 59.9917 31.0413 59.5667L19.9481 48.3183C23.3614 44.1602 26.7746 43.9067 32.3627 43.8847H43.8021C44.4487 43.8847 45.0688 44.1415 45.526 44.5986C45.9833 45.0557 46.2401 45.6757 46.2401 46.3221C46.2401 46.9685 45.9833 47.5885 45.526 48.0456C45.0688 48.5027 44.4487 48.7595 43.8021 48.7595C43.1555 48.7595 42.5353 49.0163 42.0781 49.4733C41.6209 49.9304 41.364 50.5504 41.364 51.1968C41.364 51.8433 41.6209 52.4632 42.0781 52.9203C42.5353 53.3774 43.1555 53.6342 43.8021 53.6342C45.7448 53.6342 47.608 52.8627 48.9817 51.4893C50.3555 50.116 51.1272 48.2533 51.1272 46.3111C51.1272 44.3689 50.3555 42.5063 48.9817 41.1329C47.608 39.7596 45.7448 38.9881 43.8021 38.9881H32.3432C25.8945 39.0124 20.9233 39.5243 16.2885 45.0815C14.8861 44.2886 13.2593 43.9856 11.6653 44.2205C10.0714 44.4553 8.60117 45.2145 7.48712 46.3782L2.15264 51.8793C0.771601 53.3123 0 55.2248 0 57.2147C0 59.2046 0.771601 61.117 2.15264 62.5501L15.0963 75.8215C16.4985 77.2167 18.3964 78 20.3747 78C22.3531 78 24.2509 77.2167 25.6531 75.8215L31.0705 70.2692C32.2299 69.0662 32.9578 67.5131 33.1404 65.8527H52.4011C53.0407 65.85 53.6537 65.5961 54.1078 65.1459L76.0065 43.3631C77.2177 42.1392 77.927 40.5065 77.9947 38.7861C78.0623 37.0657 77.4836 35.3823 76.3722 34.067C76.2551 33.9305 76.1284 33.8014 76.0065 33.6746C74.7139 32.4007 72.9704 31.6887 71.1553 31.6937C69.3402 31.6988 67.6006 32.4203 66.3152 33.7014ZM27.5914 66.8496L22.1862 72.4092C21.7083 72.8849 21.0613 73.1519 20.3869 73.1519C19.7125 73.1519 19.0656 72.8849 18.5876 72.4092L5.63175 59.1378C5.13459 58.6214 4.85686 57.9326 4.85686 57.2159C4.85686 56.4992 5.13459 55.8104 5.63175 55.294L10.9711 49.8124C11.2035 49.5715 11.4818 49.3794 11.7895 49.2476C12.0973 49.1157 12.4283 49.0467 12.7631 49.0446C13.0969 49.0451 13.4272 49.1124 13.7346 49.2426C14.0419 49.3728 14.3201 49.5632 14.5526 49.8027L27.567 63.001C28.0711 63.5143 28.3554 64.2039 28.3595 64.9233C28.3636 65.6427 28.0872 66.3354 27.589 66.8544L27.5914 66.8496ZM7.31402 38.9978C7.96063 38.9978 8.58076 38.741 9.03799 38.2839C9.49522 37.8268 9.75208 37.2069 9.75208 36.5605V12.1868C9.75208 10.2475 10.5227 8.38767 11.8944 7.01639C13.266 5.64511 15.1264 4.87473 17.0663 4.87473H26.8185V24.3736C26.8264 24.823 26.9573 25.2615 27.197 25.6417C27.4366 26.0219 27.7759 26.3292 28.178 26.5302C28.5801 26.7312 29.0295 26.8182 29.4776 26.7817C29.9256 26.7453 30.3551 26.5868 30.7194 26.3235L39.0088 20.1131L47.2983 26.3235C47.6626 26.5868 48.0921 26.7453 48.5401 26.7817C48.9881 26.8182 49.4376 26.7312 49.8397 26.5302C50.2417 26.3292 50.581 26.0219 50.8207 25.6417C51.0604 25.2615 51.1913 24.823 51.1992 24.3736V4.87473H60.9514C62.8913 4.87473 64.7516 5.64511 66.1233 7.01639C67.495 8.38767 68.2656 10.2475 68.2656 12.1868V24.3736C68.2656 25.0201 68.5225 25.64 68.9797 26.0971C69.4369 26.5542 70.0571 26.811 70.7037 26.811C71.3503 26.811 71.9704 26.5542 72.4276 26.0971C72.8849 25.64 73.1417 25.0201 73.1417 24.3736V12.1868C73.1379 8.95586 71.8523 5.85834 69.567 3.57371C67.2817 1.28908 64.1833 0.00387019 60.9514 0H17.0663C13.8344 0.00387019 10.736 1.28908 8.45069 3.57371C6.1654 5.85834 4.87983 8.95586 4.87596 12.1868V36.5605C4.87596 37.2069 5.13282 37.8268 5.59005 38.2839C6.04727 38.741 6.6674 38.9978 7.31402 38.9978ZM46.323 4.87473V19.4989L40.4717 15.1117C40.0497 14.7952 39.5364 14.6242 39.0088 14.6242C38.4813 14.6242 37.968 14.7952 37.546 15.1117L31.6947 19.4989V4.87473H46.323Z" fill="#EC6E00"/>
<path d="M34.0671 53.6805C35.4122 53.6805 36.5027 52.5903 36.5027 51.2456C36.5027 49.9008 35.4122 48.8106 34.0671 48.8106C32.7219 48.8106 31.6314 49.9008 31.6314 51.2456C31.6314 52.5903 32.7219 53.6805 34.0671 53.6805Z" fill="#EC6E00"/>
</svg>
