<svg width="61" height="61" viewBox="0 0 61 61" fill="none" xmlns="http://www.w3.org/2000/svg">
<path d="M30.5 0C13.6297 0 0 13.6297 0 30.5C0 47.3703 13.6297 61 30.5 61C47.3703 61 61 47.3703 61 30.5C61 13.6297 47.3703 0 30.5 0ZM30.5 57.6641C15.4406 57.6641 3.33594 45.4641 3.33594 30.5C3.33594 15.4406 15.5359 3.33594 30.5 3.33594C45.4641 3.33594 57.6641 15.5359 57.6641 30.5C57.6641 45.5594 45.5594 57.6641 30.5 57.6641Z" fill="white"/>
<path d="M30.5 9.24532C18.7765 9.24532 9.24527 18.7766 9.24527 30.5C9.24527 42.2234 18.7765 51.7547 30.5 51.7547C42.2234 51.7547 51.7546 42.2234 51.7546 30.5C51.7546 18.7766 42.2234 9.24532 30.5 9.24532ZM30.5 49.8485C19.825 49.8485 11.1515 41.175 11.1515 30.5C11.1515 19.825 19.825 11.1516 30.5 11.1516C41.175 11.1516 49.8484 19.825 49.8484 30.5C49.8484 41.175 41.175 49.8485 30.5 49.8485Z" fill="white"/>
</svg>
