<svg width="75" height="59" viewBox="0 0 75 59" fill="none" xmlns="http://www.w3.org/2000/svg">
<path d="M13.9607 31.4655C20.6161 31.8165 26.0806 26.4815 26.0806 19.883C26.0806 14.6884 22.7178 10.3362 18.024 8.86207V3.3867C18.024 2.05296 16.9731 1 15.642 1H13.4703C12.1392 1 11.0883 2.05296 11.0883 3.3867V8.86207C6.18428 10.4064 2.6814 15.1798 3.03169 20.6552C3.38197 26.4113 8.14589 31.1847 13.9607 31.4655Z" stroke="white" stroke-width="2"/>
<path d="M41.4233 31.4655C48.0787 31.8165 53.5432 26.4815 53.5432 19.883C53.5432 14.6884 50.1804 10.3362 45.4866 8.86207V3.3867C45.4866 2.05296 44.4357 1 43.1046 1H40.9329C39.6018 1 38.5509 2.05296 38.5509 3.3867V8.86207C33.6469 10.4064 30.144 15.1798 30.4943 20.6552C30.7745 26.4113 35.6085 31.1847 41.4233 31.4655Z" stroke="white" stroke-width="2"/>
<path d="M53.1929 44.6626H48.6391V42.7672C48.6391 42.1355 48.0787 41.5739 47.4481 41.5739H10.1775V36.8707C10.1775 36.2389 9.61707 35.6773 8.98656 35.6773C8.35604 35.6773 7.79558 36.2389 7.79558 36.8707V44.6626H3.66219V42.7672C3.66219 42.1355 3.10173 41.5739 2.47121 41.5739H2.19098C1.56046 41.5739 1 42.1355 1 42.7672V50.9101C1 51.5419 1.56046 52.1034 2.19098 52.1034H2.47121C3.10173 52.1034 3.66219 51.5419 3.66219 50.9101V49.0148H7.79558V56.8066C7.79558 57.4384 8.35604 58 8.98656 58C9.61707 58 10.1775 57.4384 10.1775 56.8066V52.1034H47.5182C48.1487 52.1034 48.7092 51.5419 48.7092 50.9101V49.0148H53.2629C53.8934 49.0148 54.4539 48.4532 54.4539 47.8214V45.8559C54.3838 45.1539 53.8934 44.6626 53.1929 44.6626Z" stroke="white" stroke-width="2"/>
<path d="M66.9241 12.5825C69.7264 12.5825 71.9682 10.3362 71.9682 7.52832C71.9682 4.72044 69.7264 2.47414 66.9241 2.47414C64.1218 2.47414 61.8799 4.72044 61.8799 7.52832C61.8799 10.3362 64.1918 12.5825 66.9241 12.5825ZM66.9241 3.87808C68.9557 3.87808 70.567 5.49261 70.567 7.52832C70.567 9.56404 68.9557 11.1786 66.9241 11.1786C64.8924 11.1786 63.2811 9.56404 63.2811 7.52832C63.2811 5.49261 64.9624 3.87808 66.9241 3.87808Z" stroke="white" stroke-width="2"/>
<path d="M66.9241 25.6392C69.7264 25.6392 71.9682 23.3929 71.9682 20.585C71.9682 17.7771 69.7264 15.5308 66.9241 15.5308C64.1218 15.5308 61.8799 17.7771 61.8799 20.585C61.8799 23.3929 64.1918 25.6392 66.9241 25.6392ZM66.9241 16.9347C68.9557 16.9347 70.567 18.5493 70.567 20.585C70.567 22.6207 68.9557 24.2352 66.9241 24.2352C64.8924 24.2352 63.2811 22.6207 63.2811 20.585C63.2811 18.5493 64.9624 16.9347 66.9241 16.9347Z" stroke="white" stroke-width="2"/>
<path d="M70.8474 32.3079H63.071C61.3196 32.3079 59.9184 33.7118 59.9184 35.4667V53.8584C59.9184 55.6133 61.3196 57.0172 63.071 57.0172H70.8474C72.5989 57.0172 74 55.6133 74 53.8584V35.4667C73.9299 33.7118 72.5288 32.3079 70.8474 32.3079Z" stroke="white" stroke-width="2"/>
</svg>
