<svg width="64" height="64" viewBox="0 0 64 64" fill="none" xmlns="http://www.w3.org/2000/svg">
<path d="M48.18 42.7874C48.0991 42.5842 48.0182 42.3809 47.8285 42.1917L40.4762 34.8584C42.4757 33.0534 45.1835 32.8128 46.7014 34.3267L47.2232 34.8471C48.7885 36.4084 51.7281 36.0312 53.7556 34.009L55.5988 32.1706C57.6263 30.1483 58.0045 27.2164 56.4391 25.6551L51.6483 20.8767C50.0829 19.3154 47.1433 19.6926 45.1158 21.7148L36.2071 30.6004L26.1984 20.6178L27.673 19.147L29.7601 21.2287C30.0921 21.5599 30.7453 21.4761 31.1754 21.0471L34.0631 18.167C34.4932 17.738 34.5772 17.0865 34.2452 16.7553L32.1581 14.6736L34.247 12.5901C34.5542 12.2836 34.5488 11.9106 34.359 11.7213C34.1693 11.5321 33.7338 11.5879 33.488 11.8331L31.4605 13.8553L29.3734 11.7736C29.0414 11.4424 28.3881 11.5263 27.9581 11.9552L25.0704 14.8354C24.6403 15.2643 24.5563 15.9159 24.8883 16.2471L26.9754 18.3288L25.5009 19.7995L21.801 16.1092C21.5638 15.8727 21.3127 15.7447 21 15.678L15.7777 20.8868C15.8445 21.1986 15.9728 21.4492 16.21 21.6857L42.2989 47.7069C42.4412 47.8488 42.6924 47.9768 42.8961 48.0575L48.18 42.7874Z" stroke="white" stroke-width="2"/>
<path d="M20.1656 15.0909C19.0475 12.1373 17.039 9.03098 16.0904 8.08475C14.5725 6.57079 10.2993 5.25015 7.88687 6.52083L2.52678 1.17465C2.24218 0.890787 1.69781 0.960632 1.32917 1.32831C0.960529 1.69599 0.890502 2.23895 1.17511 2.52282L6.5352 7.86899C5.19978 10.3364 6.58529 14.5372 8.10319 16.0512C9.09932 17.0447 12.1663 19.0007 15.1276 20.1159L20.1656 15.0909Z" stroke="white" stroke-width="2"/>
<path d="M62.8634 61.3546L57.5033 56.0084C58.8387 53.541 57.4532 49.3402 55.9353 47.8263C54.9392 46.8327 51.621 44.7488 48.5983 43.6949L43.6831 48.5973C44.7398 51.6122 46.8291 54.9217 47.8253 55.9152C49.3432 57.4292 53.6163 58.7498 56.0287 57.4792L61.3888 62.8253C61.6734 63.1092 62.2178 63.0394 62.5864 62.6717C62.9551 62.304 63.148 61.6385 62.8634 61.3546Z" stroke="white" stroke-width="2"/>
</svg>
