<svg width="47" height="47" viewBox="0 0 47 47" fill="none" xmlns="http://www.w3.org/2000/svg">
<circle cx="23.5" cy="23.5" r="23" stroke="white"/>
<path d="M30.715 15.1526C26.9306 11.1773 21.1097 10.7317 16.8649 13.7768L16.853 12.0287C16.851 11.7345 16.6255 11.4977 16.3494 11.5L15.3503 11.5083C15.0744 11.5106 14.8526 11.7508 14.8546 12.0448L14.8821 16.0316C14.886 16.6173 15.333 17.0886 15.8814 17.0886C15.8834 17.0886 15.8863 17.0886 15.8892 17.0886L19.6294 17.0592C19.9054 17.0571 20.1274 16.8166 20.1253 16.5224L20.1175 15.457C20.1154 15.1629 19.8901 14.9264 19.6143 14.9285L18.9786 14.9334C22.3239 13.1531 26.5034 13.72 29.3118 16.6693C32.007 19.5017 32.7435 23.7596 31.2119 27.4107C31.1029 27.6706 31.1922 27.9734 31.43 28.1031L32.3219 28.5889C32.5746 28.7265 32.8942 28.6156 33.0115 28.3402C34.9166 23.8657 34.0237 18.6297 30.715 15.1526ZM30.1187 29.9115C30.1167 29.9115 30.1138 29.9115 30.1109 29.9115L26.3707 29.9408C26.0947 29.943 25.8727 30.1834 25.8748 30.4776L25.8826 31.543C25.8847 31.837 26.11 32.0735 26.3858 32.0715L27.021 32.0666C23.6755 33.8465 19.4966 33.2791 16.6883 30.3307C13.9931 27.4983 13.2567 23.2403 14.7882 19.5893C14.8972 19.3294 14.8079 19.0266 14.5701 18.8969L13.6782 18.4111C13.4255 18.2735 13.106 18.3844 12.9887 18.6598C11.0833 23.1342 11.9763 28.3702 15.2849 31.8474C17.4229 34.0935 20.2119 35.2129 22.9989 35.2129C25.1448 35.2129 27.2885 34.5469 29.135 33.2219L29.1469 34.9712C29.1489 35.2654 29.3743 35.5022 29.6504 35.5L30.6495 35.4917C30.9254 35.4893 31.1473 35.2491 31.1453 34.9551L31.1177 30.9684C31.1141 30.3827 30.6672 29.9115 30.1187 29.9115Z" fill="white"/>
</svg>
