<svg width="47" height="47" viewBox="0 0 47 47" fill="none" xmlns="http://www.w3.org/2000/svg">
<circle cx="23.5" cy="23.5" r="23" stroke="white"/>
<path fill-rule="evenodd" clip-rule="evenodd" d="M15.5714 13.2143H12.7857C11.248 13.2143 10 14.4623 10 16V32.7143C10 34.252 11.248 35.5 12.7857 35.5H33.2143C34.752 35.5 36 34.252 36 32.7143V16C36 14.4623 34.752 13.2143 33.2143 13.2143H30.4286V12.2857C30.4286 10.748 29.1806 9.5 27.6429 9.5H18.3571C16.8194 9.5 15.5714 10.748 15.5714 12.2857V13.2143ZM34.1429 16V32.7143C34.1429 32.9606 34.045 33.1967 33.8709 33.3709C33.6967 33.545 33.4606 33.6429 33.2143 33.6429H12.7857C12.5394 33.6429 12.3033 33.545 12.1291 33.3709C11.955 33.1967 11.8571 32.9606 11.8571 32.7143V16C11.8571 15.7537 11.955 15.5175 12.1291 15.3434C12.3033 15.1693 12.5394 15.0714 12.7857 15.0714H33.2143C33.4606 15.0714 33.6967 15.1693 33.8709 15.3434C34.045 15.5175 34.1429 15.7537 34.1429 16ZM21.674 27.1429H29.5C30.2264 27.1241 30.9167 26.8224 31.4238 26.302C31.9309 25.7816 32.2147 25.0837 32.2147 24.3571C32.2147 23.6305 31.9309 22.9327 31.4238 22.4123C30.9167 21.8919 30.2264 21.5902 29.5 21.5714H21.674C20.855 20.3615 19.5244 19.7143 17.904 19.7143C17.0699 19.7145 16.2512 19.9393 15.5339 20.3651C14.8166 20.7909 14.2272 21.402 13.8276 22.1341C13.7481 22.2795 13.709 22.4435 13.7143 22.6091C13.7195 22.7748 13.769 22.9359 13.8576 23.076C13.9462 23.216 14.0706 23.3298 14.218 23.4055C14.3654 23.4812 14.5304 23.5161 14.6958 23.5066C15.6708 23.4518 16.3189 24.0851 16.3189 24.0851L16.591 24.3571L16.3189 24.6292C16.3189 24.6292 15.6708 25.2625 14.6958 25.2077C14.5303 25.1979 14.3651 25.2326 14.2176 25.3082C14.07 25.3839 13.9454 25.4977 13.8568 25.6378C13.7681 25.7779 13.7187 25.9392 13.7135 26.105C13.7084 26.2707 13.7478 26.4348 13.8276 26.5801C14.2272 27.3123 14.8166 27.9234 15.5339 28.3492C16.2512 28.775 17.0699 28.9998 17.904 29C19.5244 29 20.855 28.3528 21.674 27.1429ZM21.1429 25.2857C20.7909 25.2857 20.4696 25.4844 20.3118 25.7992C19.8624 26.7009 18.9793 27.1429 17.904 27.1429C17.3832 27.1436 16.8728 26.9975 16.4313 26.7213C17.189 26.3907 17.6319 25.9422 17.6319 25.9422L18.5605 25.0136C18.6468 24.9275 18.7153 24.8251 18.762 24.7125C18.8087 24.5998 18.8328 24.4791 18.8328 24.3571C18.8328 24.2352 18.8087 24.1144 18.762 24.0018C18.7153 23.8891 18.6468 23.7868 18.5605 23.7006L17.6319 22.7721C17.6319 22.7721 17.189 22.3236 16.4322 21.9921C16.8736 21.7164 17.3836 21.5707 17.904 21.5714C18.9793 21.5714 19.8624 22.0134 20.3118 22.9151C20.4696 23.2299 20.7909 23.4286 21.1429 23.4286H29.5C29.7463 23.4286 29.9825 23.5264 30.1566 23.7005C30.3307 23.8747 30.4286 24.1109 30.4286 24.3571C30.4286 24.6034 30.3307 24.8396 30.1566 25.0137C29.9825 25.1879 29.7463 25.2857 29.5 25.2857H21.1429ZM28.5714 13.2143V12.2857C28.5714 12.0394 28.4736 11.8033 28.2995 11.6291C28.1253 11.455 27.8891 11.3571 27.6429 11.3571H18.3571C18.1109 11.3571 17.8747 11.455 17.7005 11.6291C17.5264 11.8033 17.4286 12.0394 17.4286 12.2857V13.2143H28.5714Z" fill="white"/>
</svg>
