<svg width="47" height="47" viewBox="0 0 47 47" fill="none" xmlns="http://www.w3.org/2000/svg">
<circle cx="23.5" cy="23.5" r="23" stroke="white"/>
<path fill-rule="evenodd" clip-rule="evenodd" d="M39.3925 27.4974C39.78 27.5052 40.1505 27.6216 40.4395 27.8276C40.7957 28.0816 41 28.4528 41 28.846V29.1189C41 29.5121 40.7957 29.8833 40.4395 30.1372C40.1402 30.3507 39.7537 30.4682 39.3512 30.4682H37.0201C36.7495 31.536 35.7804 32.3284 34.6297 32.3284C33.4789 32.3284 32.5098 31.536 32.2392 30.4682H19.3278C19.0572 31.536 18.0881 32.3284 16.9373 32.3284C15.7866 32.3284 14.8175 31.536 14.5469 30.4682H11.4231C11.0206 30.4682 10.6341 30.3507 10.3348 30.1372C9.97855 29.8833 9.77425 29.5121 9.77425 29.1189V28.846C9.77425 28.4528 9.97854 28.0816 10.3347 27.8276C10.6238 27.6216 10.9942 27.5052 11.3817 27.4974V15.6216C11.3817 15.0978 11.7948 14.6716 12.3026 14.6716H29.7066C30.2144 14.6716 30.6275 15.0978 30.6275 15.6216V17.6836H34.8143C35.1788 17.6836 35.5766 17.8757 35.7818 18.1507L39.1055 22.6059C39.2745 22.8325 39.3925 23.1817 39.3925 23.4552V27.4974ZM34.8339 18.9054C34.8245 18.9009 34.813 18.8966 34.805 18.8947L30.6275 18.8947V27.4929L32.8091 27.4967H33.935C34.1555 27.4319 34.3886 27.3969 34.6297 27.3969C34.8708 27.3969 35.1039 27.4319 35.3243 27.4967H36.4997H38.1815V23.462C38.1771 23.4274 38.1516 23.3561 38.1336 23.3284L34.8339 18.9054ZM32.4517 28.7078H19.1153C19.2069 28.8798 19.2788 29.0639 19.3278 29.2571H32.2392C32.2882 29.0639 32.36 28.8798 32.4517 28.7078ZM29.4164 15.8827H12.5928V27.4833H15.0771V27.4967H16.2427C16.4631 27.4319 16.6962 27.3969 16.9373 27.3969C17.1785 27.3969 17.4116 27.4319 17.632 27.4967H18.7976V27.4833H29.4164V18.5528V15.8827ZM10.9853 28.8619V29.103C11.0187 29.1537 11.1749 29.2571 11.4231 29.2571H14.5469C14.5959 29.0639 14.6677 28.8798 14.7594 28.7078H11.4231C11.1749 28.7078 11.0187 28.8112 10.9853 28.8619ZM15.6827 29.8627C15.6827 30.5545 16.2455 31.1173 16.9373 31.1173C17.6292 31.1173 18.192 30.5545 18.192 29.8627C18.192 29.3447 17.8765 28.899 17.4275 28.7078H17.4213V28.7052C17.2723 28.6426 17.1088 28.608 16.9373 28.608C16.2455 28.608 15.6827 29.1708 15.6827 29.8627ZM33.375 29.8627C33.375 30.5545 33.9378 31.1173 34.6297 31.1173C35.3215 31.1173 35.8844 30.5545 35.8844 29.8627C35.8844 29.1708 35.3215 28.608 34.6297 28.608C33.9378 28.608 33.375 29.1708 33.375 29.8627ZM39.3512 29.2571C39.5993 29.2571 39.7555 29.1537 39.7889 29.103V28.8619C39.7555 28.8112 39.5993 28.7078 39.3512 28.7078H38.5222L38.4915 28.708L38.4555 28.7078H36.8077C36.8993 28.8798 36.9712 29.0639 37.0201 29.2571H39.3512ZM36.061 24.8676H32.5598C32.2479 24.8676 31.9637 24.6787 31.7996 24.3622C31.6945 24.1596 31.639 23.9147 31.639 23.6541V21.4654C31.639 21.2047 31.6945 20.9598 31.7996 20.7572C31.9637 20.4408 32.2479 20.2519 32.5598 20.2519H33.9039C34.2364 20.2519 34.4306 20.472 34.8038 20.93C35.0054 21.1773 35.2718 21.5201 35.5956 21.9488C36.1429 22.6732 36.6758 23.4071 36.6811 23.4144L36.729 23.4804L36.7577 23.5567C36.8953 23.9222 36.8721 24.2795 36.694 24.5369C36.5485 24.7471 36.3178 24.8676 36.061 24.8676ZM32.8501 21.4654V23.6541L32.8501 23.6565H35.3581C34.6819 22.7369 33.9697 21.8027 33.6715 21.463H32.8501V21.4654ZM10.1271 19.0872L7.31704 19.0872C6.98261 19.0872 6.71151 18.816 6.71151 18.4816C6.71151 18.1472 6.98264 17.8761 7.31704 17.8761L10.1271 17.8761C10.4615 17.8761 10.7326 18.1472 10.7326 18.4816C10.7326 18.8161 10.4615 19.0872 10.1271 19.0872ZM10.1271 21.0775C10.4615 21.0775 10.7326 21.3486 10.7326 21.683C10.7326 22.0174 10.4615 22.2885 10.1271 22.2885L4.60554 22.2885C4.2711 22.2885 4 22.0174 4 21.683C4 21.3486 4.27113 21.0774 4.60554 21.0774L10.1271 21.0775ZM10.1271 24.2789C10.4615 24.2789 10.7326 24.55 10.7326 24.8844C10.7326 25.2188 10.4615 25.4899 10.1271 25.4899L7.31704 25.4899C6.98261 25.4899 6.71151 25.2188 6.71151 24.8844C6.71151 24.55 6.98264 24.2788 7.31704 24.2788L10.1271 24.2789Z" fill="white"/>
</svg>
