<svg width="54" height="43" viewBox="0 0 54 43" fill="none" xmlns="http://www.w3.org/2000/svg">
<path d="M27.2263 0C15.6887 0 6.3016 9.64513 6.3016 21.5C6.3016 22.313 6.34785 23.114 6.43374 23.9032C6.50147 24.521 6.59397 25.132 6.71124 25.7328C8.08883 32.7914 12.841 38.6128 19.159 41.3368C19.7289 41.5828 20.3103 41.8018 20.905 41.9953C22.9003 42.647 25.0245 43 27.228 43C29.2481 43 31.2022 42.703 33.0505 42.1514C33.6617 41.9698 34.2596 41.7594 34.846 41.5234C41.3887 38.886 46.3341 32.9577 47.7447 25.7328C47.862 25.132 47.9545 24.521 48.0222 23.9032C48.1081 23.114 48.1544 22.313 48.1544 21.5C48.1511 9.64513 38.764 0 27.2263 0ZM9.46971 21.5C9.46971 20.1796 9.60846 18.8931 9.86944 17.6508H15.4541V23.7335C15.4013 23.7335 15.3484 23.7301 15.2939 23.7301H9.60351C9.51596 22.9986 9.47136 22.2553 9.47136 21.5017L9.46971 21.5ZM21.0619 36.1315C21.0619 36.9461 20.9017 37.7217 20.611 38.4295C15.2361 36.2028 11.1562 31.3505 9.88596 25.4256H15.2939C18.4752 25.4256 21.0619 28.0851 21.0619 31.3522V36.1315ZM17.1059 23.9592V17.6508H37.7994V23.7742C34.6197 24.1256 32.0347 26.5491 31.3541 29.7008H22.5369C21.9307 26.892 19.8115 24.6602 17.1059 23.9592ZM27.228 39.7448C25.4721 39.7448 23.7741 39.48 22.1719 38.9895C22.5204 38.107 22.7153 37.1413 22.7153 36.1315V31.398H31.1774V36.1315C31.1774 37.1973 31.3921 38.2139 31.7786 39.1355C30.3251 39.5309 28.8005 39.7431 27.228 39.7431V39.7448ZM33.3643 38.6213C33.0224 37.8643 32.8292 37.0208 32.8292 36.1315V31.3522C32.8292 28.0834 35.4175 25.4256 38.5972 25.4256H44.5684C43.2618 31.5253 38.9754 36.4896 33.3627 38.6213H33.3643ZM44.9846 21.5C44.9846 22.2552 44.9384 22.9986 44.8525 23.7284H39.4512V17.6508H44.5849C44.8459 18.8914 44.9846 20.1796 44.9846 21.5ZM10.3088 15.9536C12.5982 8.59627 19.316 3.25521 27.2263 3.25521C35.1367 3.25521 41.8528 8.59796 44.1439 15.9536H10.3088Z" fill="white"/>
<path d="M27.2263 26.0824C28.774 26.0824 30.0343 24.7874 30.0343 23.1972C30.0343 21.6069 28.774 20.312 27.2263 20.312C25.6786 20.312 24.4183 21.6069 24.4183 23.1972C24.4183 24.7874 25.6786 26.0824 27.2263 26.0824ZM27.2263 22.0091C27.8639 22.0091 28.3825 22.5421 28.3825 23.1972C28.3825 23.8523 27.8639 24.3852 27.2263 24.3852C26.5887 24.3852 26.07 23.8523 26.07 23.1972C26.07 22.5421 26.5887 22.0091 27.2263 22.0091Z" fill="white"/>
<path d="M3.59427 16.0282L0 21.5L3.59427 26.97L4.9636 26.0213L1.9937 21.5L4.9636 16.9787L3.59427 16.0282Z" fill="white"/>
<path d="M50.3512 16.0282L48.9819 16.9787L51.9534 21.5L48.9819 26.0213L50.3512 26.97L53.9455 21.5L50.3512 16.0282Z" fill="white"/>
</svg>
