<svg width="32" height="38" viewBox="0 0 32 38" fill="none" xmlns="http://www.w3.org/2000/svg">
<path d="M12 1L11.0262 2.53714C10.5761 3.24798 0 20.0094 0 26.1715C0 32.6936 5.38335 38 12 38C18.6166 38 24 32.6936 24 26.1715C24 20.0094 13.4239 3.24798 12.9738 2.53714L12 1ZM12 35.7362C6.6488 35.7362 2.29665 31.4462 2.29665 26.1715C2.29665 22.031 8.59636 10.8703 12 5.30354C15.4036 10.8703 21.7034 22.031 21.7034 26.1715C21.7034 31.4462 17.3512 35.7362 12 35.7362Z" fill="white"/>
<path d="M27.4617 1.5362L26.5 0L25.5384 1.5362C24.7808 2.74661 21 8.91629 21 11.5136C21 14.5385 23.4676 17 26.5 17C29.5324 17 32 14.5385 32 11.5136C32 8.91629 28.2192 2.74661 27.4617 1.5362ZM26.5 14.7376C24.7173 14.7376 23.268 13.2919 23.268 11.5136C23.268 10.3303 24.9373 7.01584 26.5 4.33032C28.0627 7.01584 29.732 10.3303 29.732 11.5136C29.732 13.2919 28.2827 14.7376 26.5 14.7376Z" fill="white"/>
<path d="M8.5 24C6.02012 24 4 26.0178 4 28.5C4 30.9822 6.0178 33 8.5 33C10.9822 33 13 30.9822 13 28.5C13 26.0178 10.9822 24 8.5 24ZM8.5 30.6757C7.29954 30.6757 6.32198 29.6981 6.32198 28.4977C6.32198 27.2972 7.29954 26.3197 8.5 26.3197C9.70046 26.3197 10.678 27.2972 10.678 28.4977C10.678 29.6981 9.70046 30.6757 8.5 30.6757Z" fill="white"/>
</svg>
