<svg width="56" height="53" viewBox="0 0 56 53" fill="none" xmlns="http://www.w3.org/2000/svg">
<path d="M49.3843 31.0946C49.5062 30.4879 49.6024 29.871 49.6728 29.2472C49.7621 28.4503 49.8102 27.6414 49.8102 26.8205C49.8102 14.8498 40.0498 5.11046 28.0532 5.11046C16.0567 5.11046 6.29626 14.8498 6.29626 26.8205C6.29626 27.6414 6.34435 28.4503 6.43366 29.2472C6.50408 29.871 6.60026 30.4879 6.7222 31.0946C8.15457 38.2222 13.0957 44.1004 19.6651 46.851C20.2576 47.0995 20.8622 47.3206 21.4805 47.5159C23.5552 48.174 25.7638 48.5305 28.055 48.5305C30.1554 48.5305 32.1872 48.2306 34.1091 47.6736C34.7445 47.4902 35.3663 47.2777 35.976 47.0395C42.7789 44.3763 47.921 38.3901 49.3877 31.0946H49.3843ZM46.5144 26.8205C46.5144 27.5831 46.4663 28.3337 46.377 29.0707H40.7608V22.9336H46.0988C46.3701 24.1864 46.5144 25.4872 46.5144 26.8205ZM28.0515 8.39746C36.2765 8.39746 43.2598 13.7924 45.6419 21.2199H10.4611C12.8416 13.7907 19.8265 8.39746 28.0515 8.39746ZM39.0434 22.9336V29.1169C35.7372 29.4717 33.0494 31.9189 32.3418 35.1014H23.1739C22.5436 32.2651 20.3401 30.0115 17.5268 29.3037V22.9336H39.0434ZM9.58867 26.8205C9.58867 25.4872 9.73293 24.1881 10.0043 22.9336H15.8111V29.0758C15.7561 29.0758 15.7012 29.0724 15.6445 29.0724H9.72778C9.63675 28.3337 9.59038 27.5831 9.59038 26.8222L9.58867 26.8205ZM21.6419 41.5949C21.6419 42.4175 21.4753 43.2007 21.173 43.9153C15.5844 41.6668 11.3422 36.7672 10.0215 30.7844H15.6445C18.9523 30.7844 21.6419 33.4699 21.6419 36.7689V41.5949ZM28.0515 45.2435C26.2258 45.2435 24.4603 44.9761 22.7943 44.4809C23.1567 43.5897 23.3594 42.6146 23.3594 41.5949V36.8152H32.158V41.5949C32.158 42.6711 32.3813 43.6977 32.7832 44.6282C31.2718 45.0275 29.6866 45.2418 28.0515 45.2418V45.2435ZM34.4319 44.109C34.0764 43.3446 33.8755 42.4929 33.8755 41.5949V36.7689C33.8755 33.4682 36.5668 30.7844 39.8729 30.7844H46.0816C44.7231 36.9437 40.2662 41.9565 34.4302 44.109H34.4319Z" fill="white"/>
<path d="M28.0515 31.4476C29.6608 31.4476 30.9712 30.14 30.9712 28.5342C30.9712 26.9284 29.6608 25.6208 28.0515 25.6208C26.4423 25.6208 25.1318 26.9284 25.1318 28.5342C25.1318 30.14 26.4423 31.4476 28.0515 31.4476ZM28.0515 27.3346C28.7145 27.3346 29.2538 27.8727 29.2538 28.5342C29.2538 29.1958 28.7145 29.7339 28.0515 29.7339C27.3886 29.7339 26.8493 29.1958 26.8493 28.5342C26.8493 27.8727 27.3886 27.3346 28.0515 27.3346Z" fill="white"/>
<path d="M51.9588 31.8641L51.1172 31.6961C49.6127 39.1853 44.237 45.576 37.0872 48.3745L37.4015 49.1714C44.8192 46.2683 50.3976 39.636 51.9605 31.8641H51.9588Z" fill="white"/>
<path d="M55.1584 32.505C54.2739 36.9043 52.2645 41.0533 49.3465 44.5031C46.4577 47.917 42.7394 50.5802 38.5917 52.2031L38.906 53C43.1859 51.3256 47.0228 48.5785 50.0026 45.055C53.0133 41.4955 55.088 37.2145 56 32.673L55.1584 32.505Z" fill="white"/>
<path d="M48.4277 43.7285C51.2151 40.4329 53.1353 36.4707 53.9802 32.2685L53.1387 32.1006C51.4985 40.2684 45.635 47.2383 37.8411 50.2888L38.1554 51.0857C42.1176 49.5348 45.6694 46.9915 48.4294 43.7285H48.4277Z" fill="white"/>
<path d="M18.9128 4.62546L18.5985 3.82856C11.1808 6.73168 5.6024 13.364 4.04122 21.1359L4.88278 21.3039C6.38729 13.8147 11.763 7.42404 18.9128 4.62546Z" fill="white"/>
<path d="M17.4083 0.796902L17.094 0C12.8158 1.67435 8.97724 4.42152 5.99742 7.94503C2.98669 11.5045 0.911979 15.7872 0 20.327L0.841563 20.495C1.72606 16.0957 3.73551 11.9467 6.6535 8.49686C9.54229 5.08132 13.2606 2.41984 17.4083 0.796902Z" fill="white"/>
<path d="M18.1606 2.71118L17.8463 1.91428C13.8841 3.46524 10.3323 6.00847 7.57235 9.27149C4.78489 12.5671 2.86475 16.5293 2.01975 20.7315L2.86131 20.8994C4.50322 12.7316 10.365 5.76169 18.1589 2.71118H18.1606Z" fill="white"/>
</svg>
