<svg width="53" height="43" viewBox="0 0 53 43" fill="none" xmlns="http://www.w3.org/2000/svg">
<path d="M21.4041 0C9.60211 0 0 9.64513 0 21.5C0 22.313 0.0473176 23.114 0.135178 23.9032C0.204452 24.521 0.29907 25.132 0.419033 25.7328C1.82818 32.7914 6.68921 38.6128 13.152 41.3368C13.7349 41.5829 14.3297 41.8018 14.9379 41.9953C16.979 42.647 19.1518 43 21.4058 43C23.4722 43 25.471 42.703 27.3617 42.1514C27.9869 41.9698 28.5985 41.7594 29.1983 41.5234C35.8909 38.886 40.9496 32.9577 42.3926 25.7328C42.5125 25.132 42.6071 24.521 42.6764 23.9032C42.7643 23.114 42.8116 22.313 42.8116 21.5C42.8116 9.64513 33.2095 0 21.4075 0H21.4041ZM3.24069 21.5C3.24069 20.1796 3.38262 18.8931 3.64958 17.6508H9.36219V23.7335C9.30812 23.7335 9.25405 23.7301 9.19829 23.7301H3.37756C3.28801 22.9986 3.24238 22.2553 3.24238 21.5017L3.24069 21.5ZM15.0984 36.1315C15.0984 36.9461 14.9346 37.7217 14.6372 38.4295C9.13916 36.2028 4.96579 31.3505 3.66648 25.4256H9.19829C12.4525 25.4256 15.0984 28.0851 15.0984 31.3522V36.1315ZM11.0518 23.9592V17.6508H32.2194V23.7742C28.9668 24.1256 26.3226 26.5491 25.6265 29.7008H16.6073C15.9872 26.892 13.8194 24.6602 11.0518 23.9592ZM21.4058 39.7448C19.6097 39.7448 17.8728 39.48 16.2339 38.9895C16.5904 38.107 16.7898 37.1413 16.7898 36.1315V31.398H25.4457V36.1315C25.4457 37.1973 25.6653 38.2139 26.0607 39.1355C24.5738 39.5309 23.0143 39.7431 21.4058 39.7431V39.7448ZM27.6827 38.6213C27.333 37.8643 27.1353 37.0208 27.1353 36.1315V31.3522C27.1353 28.0834 29.7829 25.4256 33.0355 25.4256H39.1434C37.8069 31.5253 33.4224 36.4896 27.681 38.6213H27.6827ZM39.5692 21.5C39.5692 22.2553 39.5219 22.9986 39.434 23.7284H33.909V17.6508H39.1603C39.4273 18.8914 39.5692 20.1796 39.5692 21.5ZM4.10071 15.9536C6.44252 8.59627 13.3142 3.25521 21.4058 3.25521C29.4974 3.25521 36.3674 8.59796 38.7109 15.9536H4.10071Z" fill="white"/>
<path d="M21.4041 26.0824C22.9873 26.0824 24.2765 24.7875 24.2765 23.1972C24.2765 21.6069 22.9873 20.312 21.4041 20.312C19.8209 20.312 18.5317 21.6069 18.5317 23.1972C18.5317 24.7875 19.8209 26.0824 21.4041 26.0824ZM21.4041 22.0092C22.0563 22.0092 22.5868 22.5421 22.5868 23.1972C22.5868 23.8523 22.0563 24.3852 21.4041 24.3852C20.7519 24.3852 20.2214 23.8523 20.2214 23.1972C20.2214 22.5421 20.7519 22.0092 21.4041 22.0092Z" fill="white"/>
<path d="M49.9587 30.5494C51.3577 30.5494 52.4931 29.4089 52.4931 28.0036V4.07326C52.4931 2.66798 51.3577 1.52747 49.9587 1.52747C48.5597 1.52747 47.4242 2.66798 47.4242 4.07326V28.0036C47.4242 29.4089 48.5597 30.5494 49.9587 30.5494Z" fill="white"/>
<path d="M52.9848 35.663C52.8446 34.234 51.6922 33.0765 50.2696 32.9357C48.3468 32.7439 46.7433 34.3545 46.9326 36.2876C47.0728 37.7167 48.2251 38.8741 49.6478 39.015C51.5706 39.2068 53.174 37.5961 52.9848 35.663Z" fill="white"/>
</svg>
