<svg width="39" height="39" viewBox="0 0 39 39" fill="none" xmlns="http://www.w3.org/2000/svg">
<path d="M16.3018 0.597246L16.2847 0.609102C14.6631 1.72227 13.1191 2.89209 11.6437 4.12251C10.5095 3.14898 8.79692 3.1964 7.72328 4.27005L4.26525 7.72813C3.19162 8.80178 3.14419 10.5143 4.11771 11.6486C2.88731 13.124 1.71751 14.668 0.604355 16.2897L0.592499 16.3068C-0.373114 17.7809 -0.133358 20.0099 1.12866 21.2719L5.27829 25.4216C6.54031 26.6836 8.76925 26.9234 10.246 25.9551L10.2631 25.9433C11.8821 24.8328 13.4221 23.6643 14.8949 22.4365L30.6135 38.1552C31.7398 39.2816 33.5709 39.2816 34.6972 38.1552L38.1553 34.6972C39.2816 33.5708 39.2816 31.7397 38.1553 30.6133L22.4367 14.8946C23.6645 13.4218 24.8316 11.8805 25.9435 10.2627L25.9553 10.2456C26.9236 8.76884 26.6838 6.53987 25.4218 5.27783L21.2722 1.12814C20.0102 -0.133891 17.7812 -0.37365 16.3045 0.594611L16.3018 0.597246ZM5.37314 10.1903C5.20452 9.81351 5.27434 9.35375 5.5826 9.04549L9.04063 5.58741C9.3502 5.27783 9.80864 5.20933 10.1854 5.37795C10.1024 5.45304 10.0207 5.52681 9.93774 5.6019C9.8205 5.70861 9.70325 5.81268 9.58601 5.91939C9.3423 6.14202 9.10123 6.36729 8.86015 6.5952C8.72973 6.71771 8.59932 6.84286 8.47153 6.96801C8.30818 7.12609 8.14615 7.28286 7.98543 7.44358C7.80232 7.62669 7.62053 7.80849 7.43742 7.9916C7.2767 8.15232 7.11862 8.31567 6.96186 8.47771C6.83803 8.60681 6.7142 8.73591 6.59037 8.86501C6.36247 9.10609 6.1372 9.34716 5.91325 9.59219C5.80786 9.70812 5.70248 9.82405 5.59709 9.94261C5.522 10.0256 5.44691 10.1086 5.37182 10.1916L5.37314 10.1903ZM21.2168 16.3147L36.8366 31.9347C37.2357 32.3338 37.2357 32.9846 36.8366 33.3838L33.3786 36.8418C32.9794 37.241 32.3286 37.241 31.9295 36.8418L16.3097 21.2219C16.4046 21.1376 16.4981 21.0519 16.5943 20.9663C16.7128 20.8609 16.8314 20.7529 16.9486 20.6462C17.1897 20.4262 17.4282 20.2035 17.6653 19.9796C17.8076 19.8452 17.9472 19.7109 18.0881 19.5752C18.2317 19.4368 18.374 19.2972 18.5176 19.1562C18.6243 19.0495 18.7336 18.9481 18.8404 18.8414C18.9471 18.7347 19.0498 18.6267 19.1552 18.5186C19.2962 18.3777 19.4345 18.2341 19.5741 18.0892C19.7085 17.9495 19.8442 17.8086 19.9772 17.6676C20.2012 17.4305 20.4238 17.1921 20.6438 16.951C20.7505 16.8337 20.8559 16.7152 20.9613 16.5992C21.0469 16.5031 21.1325 16.4095 21.2182 16.3134L21.2168 16.3147ZM24.1005 6.59915C24.7473 7.24597 24.8843 8.46848 24.3982 9.2207C23.1375 11.0584 21.7991 12.7947 20.3816 14.4388C20.2578 14.5837 20.13 14.7273 20.0036 14.8722C19.8587 15.0355 19.7151 15.2002 19.5688 15.3622C19.4371 15.5071 19.308 15.6521 19.175 15.7957C19.0327 15.9511 18.8878 16.1039 18.7442 16.258C18.6072 16.403 18.4715 16.5492 18.3319 16.6941C18.1804 16.8509 18.0275 17.0063 17.8761 17.1604C17.6389 17.4028 17.3992 17.6426 17.1568 17.8797C17 18.0338 16.8446 18.1867 16.6865 18.3395C16.5442 18.4765 16.398 18.6122 16.2544 18.7479C16.099 18.8928 15.9448 19.039 15.7881 19.1826C15.6458 19.3143 15.5022 19.4447 15.3573 19.5738C15.1953 19.7201 15.0319 19.865 14.8672 20.0086C14.7223 20.135 14.5774 20.2641 14.4312 20.3893C12.7872 21.8068 11.0522 23.1439 9.21452 24.4046C8.46231 24.8907 7.23982 24.7537 6.593 24.1069L2.44337 19.9572C1.79655 19.3104 1.65955 18.0879 2.14565 17.3356C3.40503 15.5019 4.7395 13.7695 6.15564 12.1268C6.2887 11.9727 6.42306 11.8199 6.55743 11.667C6.69312 11.5129 6.82749 11.3601 6.96449 11.2099C7.10281 11.0558 7.24245 10.903 7.38209 10.7502C7.51251 10.6092 7.64424 10.4669 7.77598 10.3273C7.92352 10.1692 8.07238 10.0098 8.22256 9.85435C8.34112 9.73052 8.46231 9.60932 8.58219 9.48681C8.87859 9.1825 9.17895 8.88214 9.48457 8.58441C9.60445 8.46717 9.72301 8.3486 9.84421 8.23268C10.0023 8.07986 10.1643 7.92837 10.325 7.77819C10.462 7.64908 10.599 7.51998 10.7387 7.39352C10.8941 7.25124 11.0509 7.10765 11.2077 6.96669C11.3552 6.83495 11.5041 6.7019 11.6529 6.57148C11.8097 6.43316 11.9664 6.29484 12.1245 6.15783C13.7646 4.7443 15.4956 3.41113 17.328 2.15305C18.0802 1.66694 19.3027 1.80395 19.9496 2.45077L24.0992 6.60047L24.1005 6.59915Z" fill="white"/>
</svg>
