<svg width="58" height="59" viewBox="0 0 58 59" fill="none" xmlns="http://www.w3.org/2000/svg">
<path d="M28.5233 8.27796C16.5375 8.27796 6.78585 17.8338 6.78585 29.579C6.78585 30.3845 6.83391 31.1781 6.92313 31.96C6.99349 32.5721 7.08958 33.1774 7.21141 33.7727C8.6425 40.766 13.5792 46.5335 20.1427 49.2322C20.7347 49.4761 21.3387 49.693 21.9564 49.8847C24.0293 50.5304 26.236 50.8801 28.525 50.8801C30.6236 50.8801 32.6536 50.5858 34.5737 50.0394C35.2086 49.8594 35.8298 49.6509 36.4389 49.4172C43.2357 46.8042 48.3732 40.9307 49.8386 33.7727C49.9605 33.1774 50.0566 32.5721 50.1269 31.96C50.2161 31.1781 50.2642 30.3845 50.2642 29.579C50.2642 17.8338 40.5125 8.27796 28.5267 8.27796H28.5233ZM10.077 29.579C10.077 28.2708 10.2212 26.9963 10.4923 25.7654H16.2938V31.7919C16.2389 31.7919 16.184 31.7885 16.1274 31.7885H10.216C10.1251 31.0638 10.0787 30.3273 10.0787 29.5807L10.077 29.579ZM22.1194 44.0751C22.1194 44.8822 21.953 45.6507 21.651 46.3519C16.0673 44.1457 11.829 39.3384 10.5094 33.4683H16.1274C19.4323 33.4683 22.1194 36.1032 22.1194 39.3401V44.0751ZM18.0098 32.0155V25.7654H39.507V31.8322C36.2038 32.1803 33.5184 34.5815 32.8114 37.704H23.6518C23.022 34.9211 20.8205 32.71 18.0098 32.0155ZM28.525 47.655C26.701 47.655 24.937 47.3927 23.2725 46.9067C23.6346 46.0324 23.8371 45.0756 23.8371 44.0751V39.3855H32.6278V44.0751C32.6278 45.1311 32.8509 46.1383 33.2524 47.0514C31.7424 47.4431 30.1586 47.6533 28.525 47.6533V47.655ZM34.8997 46.5419C34.5445 45.7919 34.3438 44.9562 34.3438 44.0751V39.3401C34.3438 36.1015 37.0326 33.4683 40.3358 33.4683H46.5389C45.1816 39.5116 40.7287 44.4299 34.898 46.5419H34.8997ZM46.9713 29.579C46.9713 30.3273 46.9233 31.0638 46.834 31.7868H41.2229V25.7654H46.5561C46.8272 26.9946 46.9713 28.2708 46.9713 29.579ZM10.9504 24.0839C13.3287 16.7947 20.3074 11.503 28.525 11.503C36.7426 11.503 43.7196 16.7964 46.0996 24.0839H10.9504Z" fill="white"/>
<path d="M28.5233 34.119C30.1311 34.119 31.4404 32.8361 31.4404 31.2605C31.4404 29.685 30.1311 28.402 28.5233 28.402C26.9155 28.402 25.6062 29.685 25.6062 31.2605C25.6062 32.8361 26.9155 34.119 28.5233 34.119ZM28.5233 30.0835C29.1857 30.0835 29.7245 30.6115 29.7245 31.2605C29.7245 31.9096 29.1857 32.4376 28.5233 32.4376C27.861 32.4376 27.3222 31.9096 27.3222 31.2605C27.3222 30.6115 27.861 30.0835 28.5233 30.0835Z" fill="white"/>
<path d="M52.2375 15.4192C51.8995 14.9686 51.5923 14.5768 51.2989 14.2254L51.244 14.1598L51.1771 14.106C51.0947 14.0387 51.0106 13.9732 50.9265 13.9076C50.7258 13.7495 50.5387 13.5999 50.3569 13.4468C49.9553 13.1055 49.5126 12.6851 49.2827 12.142L49.2363 12.0495C48.9824 11.6107 48.6787 11.0877 48.3526 10.5446C48.0112 9.97458 47.6903 9.45836 47.3711 8.96232L47.3591 8.94551C46.9113 8.28637 46.0945 7.81723 44.9928 7.5835C44.4489 7.43049 43.8861 7.29933 43.3576 7.17995L42.9955 7.09755C41.5009 6.76126 40.087 6.44346 38.9064 5.79945C38.5135 5.5405 38.1222 5.2681 37.743 4.98729C37.3535 4.69975 36.964 4.39541 36.583 4.08265C35.4557 2.98632 34.2511 2.36585 33.0002 2.23806C32.621 2.17584 32.2229 2.12372 31.8179 2.07832L34.0126 0.100889L31.5451 0L28.5164 2.72905L31.3014 5.69688L33.7689 5.79777L31.8728 3.77998C32.1697 3.81697 32.4631 3.85733 32.7445 3.90273L32.8011 3.90946C33.6797 3.99521 34.5274 4.44921 35.3956 5.30005L35.4488 5.34881C35.8624 5.69015 36.2862 6.0214 36.7083 6.33248C37.1218 6.63851 37.5491 6.93445 37.9764 7.21694L38.033 7.25225C39.4349 8.02573 41.0479 8.38894 42.6077 8.74037L42.9663 8.82108C43.56 8.9556 44.0559 9.0733 44.5416 9.21118L44.6016 9.22632C45.2451 9.35915 45.7238 9.59624 45.9194 9.87537C46.2266 10.3512 46.5355 10.8506 46.8649 11.4005C47.1738 11.9167 47.4638 12.4161 47.7109 12.8398C48.0832 13.6839 48.713 14.2876 49.2243 14.7214C49.4268 14.8929 49.6362 15.0594 49.8386 15.2191C49.897 15.2662 49.9553 15.3116 50.0137 15.3587C50.2934 15.6967 50.5885 16.075 50.9163 16.5156L50.9918 16.6181L51.0947 16.6938C56.2682 20.4906 57.6393 26.016 54.9538 32.2543L54.9075 32.3619L54.8938 32.4779C54.8423 32.8966 54.7908 33.2649 54.7359 33.6045C54.6776 33.9694 54.6107 34.3393 54.5369 34.7025L56.2185 35.0321C56.2974 34.6437 56.3695 34.2502 56.4313 33.8618C56.4827 33.5373 56.5325 33.1875 56.5823 32.7974C59.4788 25.9622 57.8932 19.6414 52.2272 15.4226L52.2375 15.4192Z" fill="white"/>
<path d="M32.4665 53.6125L34.9787 54.8097C32.8749 55.326 30.7094 55.5883 28.525 55.5883C28.1372 55.5883 27.7906 55.5782 27.4646 55.5563L27.3702 55.5496L27.2775 55.563C27.1952 55.5748 27.1128 55.5883 27.0287 55.6017C26.6426 55.6639 26.2051 55.7346 26.0283 55.6303C24.5784 54.5979 23.1473 53.779 21.6561 53.1249C21.1705 52.9113 20.6712 52.7129 20.1684 52.5347C18.6035 51.9092 16.9871 51.9596 15.4204 52.0101C14.6431 52.0353 13.9087 52.0588 13.1983 52.0017C12.7659 51.9663 12.3867 51.9058 12.0383 51.8133L11.9285 51.7847H11.8153C11.1941 51.7847 10.669 51.2181 10.5901 50.9087L10.5712 50.8465C8.96509 46.1249 6.61941 42.6459 2.9679 39.5704C2.85637 39.451 2.71052 39.2072 2.62129 38.7112L2.60927 38.6422L2.58525 38.575C2.41366 38.1025 2.26609 37.63 2.14597 37.1676C1.62947 35.1733 1.578 33.1892 1.99497 31.2689L2.01556 31.1697L2.01213 31.0688C1.9984 30.5795 1.98296 30.0734 1.98296 29.5773H0.267026C0.267026 30.0633 0.280749 30.5476 0.294476 31.0184C-0.153383 33.1623 -0.0898885 35.3684 0.481517 37.5795C0.608497 38.0705 0.764642 38.5733 0.943099 39.0727C1.08552 39.8058 1.3635 40.3775 1.77018 40.776L1.81823 40.8198C5.23122 43.6867 7.4259 46.9353 8.93249 51.3509C9.20704 52.3464 10.319 53.404 11.6951 53.4629C12.1138 53.5671 12.56 53.6361 13.0559 53.6764C13.8658 53.742 14.6843 53.7151 15.4753 53.6899C16.9287 53.6428 18.3015 53.5991 19.5301 54.0951L19.5644 54.1086C20.0329 54.275 20.4996 54.46 20.9526 54.6584C22.3408 55.2671 23.6775 56.0339 25.0365 57.0041L25.0657 57.0243C25.4655 57.2866 25.8962 57.3656 26.3149 57.3656C26.6632 57.3656 27.003 57.3101 27.3084 57.2613C27.3548 57.2546 27.4011 57.2462 27.4474 57.2395C27.782 57.2597 28.1355 57.2681 28.5233 57.2681C30.9445 57.2681 33.3451 56.962 35.6736 56.3651L34.3643 59L36.6997 58.2097L38.4997 54.5844L34.8002 52.8205L32.4648 53.6108L32.4665 53.6125Z" fill="white"/>
</svg>
