<svg width="116" height="60" viewBox="0 0 116 60" fill="none" xmlns="http://www.w3.org/2000/svg">
<path d="M116 59.7486H0V59.0171C0 26.618 26.0312 0.285645 58 0.285645C89.9688 0.285645 116 26.618 116 59.0171V59.7486ZM1.46291 58.2857H114.537C114.15 27.0483 88.9362 1.74855 58 1.74855C27.0638 1.74855 1.85015 27.0483 1.46291 58.2857Z" fill="white"/>
<path d="M23.751 53.2515L24.9557 53.0794C24.9988 53.2945 25.1278 53.4666 25.2569 53.5957C25.429 53.7248 25.6442 53.7678 25.9023 53.7678C26.2035 53.7678 26.4186 53.7248 26.5907 53.5957C26.6768 53.5096 26.7628 53.4236 26.7628 53.2945C26.7628 53.2084 26.7198 53.1224 26.6768 53.0794C26.6338 53.0363 26.5047 52.9503 26.2896 52.9073C25.343 52.6921 24.7406 52.52 24.4824 52.3479C24.1382 52.0898 23.9661 51.7886 23.9661 51.3583C23.9661 50.9711 24.1382 50.6268 24.4394 50.3687C24.7406 50.1105 25.2139 49.9814 25.8593 49.9814C26.4617 49.9814 26.935 50.0675 27.2361 50.2826C27.5373 50.4978 27.7525 50.7559 27.8385 51.1862L26.7198 51.4013C26.6768 51.2292 26.5907 51.1001 26.4617 51.0141C26.3326 50.928 26.1174 50.885 25.9023 50.885C25.6011 50.885 25.386 50.928 25.2139 51.0141C25.1278 51.0571 25.0848 51.1432 25.0848 51.2722C25.0848 51.3583 25.1278 51.4444 25.2139 51.4874C25.2999 51.5734 25.6872 51.6595 26.3326 51.8316C26.978 51.9607 27.4082 52.1328 27.6664 52.3479C27.9246 52.563 28.0536 52.8642 28.0536 53.2084C28.0536 53.6387 27.8815 53.9829 27.5373 54.2841C27.1931 54.5853 26.6768 54.7144 26.0314 54.7144C25.429 54.7144 24.9557 54.5853 24.5685 54.3271C24.0952 53.9829 23.837 53.6387 23.751 53.2515Z" fill="white"/>
<path d="M32.7432 53.0794L33.9049 53.2946C33.7328 53.7248 33.5177 54.069 33.1735 54.2842C32.8293 54.4993 32.442 54.6284 31.9687 54.6284C31.1942 54.6284 30.6349 54.3702 30.2476 53.8539C29.9465 53.4667 29.8174 52.9503 29.8174 52.3049C29.8174 51.5735 29.9895 50.9711 30.3767 50.5839C30.764 50.1966 31.2373 49.9385 31.8396 49.9385C32.485 49.9385 33.0444 50.1536 33.4316 50.5839C33.8189 51.0141 33.991 51.7026 33.991 52.6061H31.0221C31.0221 52.9503 31.1082 53.2085 31.3233 53.4236C31.4954 53.6388 31.7536 53.7248 32.0117 53.7248C32.1839 53.7248 32.356 53.6818 32.485 53.5527C32.5711 53.4667 32.6571 53.2946 32.7432 53.0794ZM32.7862 51.8747C32.7862 51.5305 32.7002 51.2723 32.5281 51.1002C32.356 50.9281 32.1408 50.842 31.9257 50.842C31.6675 50.842 31.4524 50.9281 31.2803 51.1432C31.1082 51.3153 31.0221 51.5735 31.0221 51.9177H32.7862V51.8747Z" fill="white"/>
<path d="M37.2614 54.4993H36.0997V50.0245H37.1753V50.6699C37.3474 50.3687 37.5196 50.1536 37.6917 50.0676C37.8207 49.9815 37.9928 49.9385 38.208 49.9385C38.4661 49.9385 38.7243 50.0245 38.9825 50.1536L38.6382 51.1863C38.4231 51.0572 38.251 51.0141 38.0789 51.0141C37.9068 51.0141 37.7777 51.0572 37.6486 51.1432C37.5196 51.2293 37.4335 51.4014 37.3905 51.6165C37.3044 51.8747 37.3044 52.348 37.3044 53.1225V54.4993H37.2614Z" fill="white"/>
<path d="M41.9087 54.4997L40.1016 50.0249H41.3493L42.2099 52.3053L42.468 53.0798C42.5111 52.9077 42.5541 52.7786 42.5971 52.6926C42.6401 52.5635 42.6832 52.4344 42.7262 52.3053L43.5867 50.0249H44.7915L42.9844 54.4997H41.9087Z" fill="white"/>
<path d="M46.6846 49.4223V48.3467H47.8463V49.4223H46.6846ZM46.6846 54.4995V50.0247H47.8463V54.4995H46.6846Z" fill="white"/>
<path d="M54.1706 51.3587L53.0089 51.5739C52.9659 51.3587 52.8798 51.1866 52.7507 51.0575C52.6216 50.9285 52.4495 50.8854 52.1914 50.8854C51.8902 50.8854 51.6751 50.9715 51.5029 51.1866C51.3308 51.4018 51.2448 51.746 51.2448 52.2193C51.2448 52.7356 51.3308 53.1228 51.5029 53.338C51.6751 53.5531 51.9332 53.6822 52.2344 53.6822C52.4495 53.6822 52.6216 53.6391 52.7937 53.5101C52.9659 53.381 53.0519 53.1659 53.0949 52.8647L54.2567 53.0798C54.1276 53.5961 53.9124 54.0264 53.5682 54.2845C53.224 54.5427 52.7507 54.6718 52.1914 54.6718C51.546 54.6718 51.0297 54.4567 50.6424 54.0694C50.2552 53.6391 50.04 53.0798 50.04 52.3483C50.04 51.6169 50.2552 51.0575 50.6424 50.6273C51.0297 50.197 51.546 50.0249 52.2344 50.0249C52.7937 50.0249 53.224 50.154 53.5252 50.3691C53.8264 50.5412 54.0415 50.8854 54.1706 51.3587Z" fill="white"/>
<path d="M58.8604 53.0794L60.0221 53.2946C59.85 53.7248 59.6349 54.069 59.2907 54.2842C58.9464 54.4993 58.5592 54.6284 58.0859 54.6284C57.3114 54.6284 56.7521 54.3702 56.3648 53.8539C56.0637 53.4667 55.9346 52.9503 55.9346 52.3049C55.9346 51.5735 56.1067 50.9711 56.4939 50.5839C56.8812 50.1536 57.3545 49.9385 57.9568 49.9385C58.6022 49.9385 59.1616 50.1536 59.5488 50.5839C59.9361 51.0141 60.1082 51.7026 60.1082 52.6061H57.1393C57.1393 52.9503 57.2254 53.2085 57.4405 53.4236C57.6556 53.6388 57.8708 53.7248 58.1289 53.7248C58.301 53.7248 58.4731 53.6818 58.6022 53.5527C58.6883 53.4667 58.8174 53.2946 58.8604 53.0794ZM58.9464 51.8747C58.9464 51.5305 58.8604 51.2723 58.6883 51.1002C58.5162 50.9281 58.301 50.842 58.0859 50.842C57.8277 50.842 57.6126 50.9281 57.4405 51.1432C57.2684 51.3153 57.1823 51.5735 57.1823 51.9177H58.9464V51.8747Z" fill="white"/>
<path d="M72.9302 54.2417C72.9733 54.3277 72.8442 54.4138 72.7581 54.4138H71.6825C71.5964 54.4138 71.5964 54.4138 71.5534 54.3707C71.5534 54.3707 71.5104 52.3915 70.994 52.0043C70.951 51.9612 70.6929 52.0043 70.6929 52.0043C70.5207 52.0043 70.3917 52.0043 70.3056 52.0043L70.0044 54.2847C70.0044 54.4138 69.9184 54.4568 69.8323 54.4568H68.8427C68.7567 54.4568 68.7567 54.4568 68.7567 54.3707L69.5742 48.6912C69.5742 48.6052 69.6602 48.5621 69.7463 48.5191C70.0044 48.4761 70.3486 48.4761 70.6498 48.4761H70.7359H70.7789C71.0371 48.4761 71.2952 48.4761 71.4243 48.4761C72.7151 48.4761 73.2745 48.9924 73.2745 49.896C73.2745 50.7995 72.9733 51.2728 72.0697 51.6601C72.0697 51.6601 72.1127 51.7461 72.1127 51.7891C72.6291 52.3054 72.9302 54.2417 72.9302 54.2417ZM70.5207 51.1437C70.6498 51.1437 70.7789 51.1437 70.994 51.1437C71.7255 51.1437 72.0697 50.6704 72.0697 50.0681C72.0697 49.5087 71.6825 49.3796 71.2952 49.3796C71.1661 49.3796 70.994 49.3796 70.7789 49.3796L70.5207 51.1437Z" fill="white"/>
<path d="M80.9763 48.6477L80.4169 52.305C80.2018 53.7248 79.3413 54.4993 77.8784 54.4993C76.3294 54.4993 75.684 53.6388 75.8561 52.2189L76.3724 48.5616C76.4155 48.4756 76.4155 48.4756 76.5015 48.4756H77.4911C77.5772 48.4756 77.6202 48.5616 77.6202 48.6477L77.0609 52.305C76.9318 53.0794 77.233 53.4667 77.8784 53.4667C78.5668 53.4667 79.0401 53.0364 79.1692 52.2619L79.6855 48.6047C79.6855 48.5186 79.7285 48.5186 79.8146 48.5186H80.8042C80.9333 48.4756 81.0193 48.5616 80.9763 48.6477Z" fill="white"/>
<path d="M87.086 48.949C87.172 49.0351 87.1721 49.0781 87.129 49.1642L86.6127 49.7666C86.5697 49.8096 86.4836 49.8096 86.3545 49.7666C86.0103 49.5514 85.8813 49.5084 85.6231 49.5084C85.2358 49.5084 84.8486 49.8956 84.8486 50.2398C84.8486 50.541 85.1928 50.7131 85.537 50.8852C86.2685 51.2725 86.8709 51.4446 86.8709 52.4342C86.8278 53.4238 86.2685 54.5425 84.5905 54.5425C83.816 54.5425 83.3857 54.2844 82.8694 53.8541C82.8264 53.768 82.7833 53.725 82.8264 53.639L83.2566 53.0796C83.2996 52.9936 83.4287 52.9936 83.4718 53.0796C83.902 53.3808 84.1172 53.5099 84.5905 53.5099C85.2359 53.5099 85.537 52.9936 85.537 52.5633C85.537 52.133 85.1928 52.0039 84.8916 51.8749C84.1602 51.4876 83.5148 51.3155 83.5148 50.412C83.5148 49.6375 83.9881 48.4327 85.5801 48.4327C86.1394 48.3897 86.6988 48.5618 87.086 48.949Z" fill="white"/>
<path d="M93.54 48.949C93.626 49.0351 93.626 49.0781 93.583 49.1642L93.0667 49.7666C93.0237 49.8096 92.9376 49.8096 92.8085 49.7666C92.4643 49.5514 92.3352 49.5084 92.0771 49.5084C91.6898 49.5084 91.3026 49.8956 91.3026 50.2398C91.3026 50.541 91.6468 50.7131 91.991 50.8852C92.7225 51.2725 93.3248 51.4446 93.3248 52.4342C93.2818 53.4238 92.7225 54.5425 91.0444 54.5425C90.27 54.5425 89.8397 54.2844 89.3234 53.8541C89.2803 53.768 89.2373 53.725 89.2803 53.639L89.7106 53.0796C89.7536 52.9936 89.8827 52.9936 89.9257 53.0796C90.356 53.3808 90.5711 53.5099 91.0444 53.5099C91.6898 53.5099 91.991 52.9936 91.991 52.5633C91.991 52.133 91.6468 52.0039 91.3456 51.8749C90.6142 51.4876 89.9688 51.3155 89.9688 50.412C89.9688 49.6375 90.4421 48.4327 92.034 48.4327C92.5934 48.3897 93.1527 48.5618 93.54 48.949Z" fill="white"/>
<path d="M97.8427 48.4756C97.9287 48.4756 98.0148 48.5616 97.9718 48.6477L96.9391 54.2412C96.9391 54.3272 96.8531 54.3702 96.767 54.3702H95.7774C95.6913 54.3702 95.6483 54.3272 95.6483 54.2842L96.724 48.5616C96.724 48.4756 96.767 48.4756 96.8531 48.4756H97.8427Z" fill="white"/>
<path d="M104.684 54.4133H103.651C103.565 54.4133 103.522 54.3273 103.522 54.2842L103.307 52.6923H101.715L100.941 54.2842C100.898 54.3273 100.855 54.3703 100.769 54.3703H99.7359C99.6499 54.3703 99.5638 54.2842 99.6068 54.1982L102.533 48.5187C102.576 48.4326 102.619 48.4326 102.662 48.4326H103.737C103.823 48.4326 103.866 48.5187 103.866 48.5617L104.77 54.1552C104.813 54.3273 104.77 54.4133 104.684 54.4133ZM103.221 51.7887L103.049 49.9386L102.016 51.7887H103.221Z" fill="white"/>
<path d="M107.567 52.9502H106.319V54.241H107.567V52.9502Z" fill="white"/>
<path d="M28.2685 42.1934V16.0762C28.2685 13.7097 28.2685 12.634 27.3219 11.7305C26.5044 10.999 25.2997 10.999 24.224 10.999C23.9658 10.999 14.7151 11.1281 14.7151 11.1281V57.8121L20.1795 53.5955V46.453C21.5133 46.453 23.5786 46.496 24.3531 46.496C25.859 46.496 27.7092 46.0228 28.2255 43.9144C28.3115 43.6563 28.2685 43.3551 28.2685 43.0539C28.2685 42.7527 28.2685 42.4515 28.2685 42.1934ZM23.1483 41.3328C23.1483 41.634 22.9762 41.8922 22.675 42.1504C22.3308 42.4085 21.9866 42.5376 21.5563 42.5376C21.1691 42.5376 20.2225 42.5376 20.2225 42.5376C20.2225 42.5376 20.1795 41.6771 20.1795 41.3759V16.5064C20.1795 16.1192 20.1795 15.2587 20.1795 15.2587C20.1795 15.2587 21.1691 15.2587 21.5563 15.2587C22.0296 15.2587 22.3738 15.3877 22.7181 15.6029C23.0192 15.818 23.1913 16.1192 23.1913 16.4634V41.3328H23.1483Z" fill="white"/>
<path d="M64.0664 14.7426V11.0423H60.151V2.47998L54.8157 6.52449V11.0423H51.9329V14.7426H54.8157V41.118C54.8157 42.796 55.1599 44.0008 55.8483 44.6892C56.5367 45.3776 57.2682 45.8509 58.0857 46.066C58.559 46.1951 58.9892 46.2812 59.4195 46.2812C59.8498 46.2812 60.237 46.3242 60.5382 46.3242C60.5812 46.3242 60.5812 46.3242 60.5812 46.3672H64.0664V42.4948H62.1302C62.0441 42.4948 61.9151 42.4948 61.786 42.4518C61.6569 42.4518 61.5278 42.4088 61.4418 42.3657C61.1406 42.2797 60.8394 42.0646 60.5382 41.7203C60.28 41.3761 60.151 40.9028 60.151 40.2144V14.7426H64.0664Z" fill="white"/>
<path d="M47.7162 13.7528C47.5441 13.0644 47.1138 12.462 46.4684 11.8596C45.823 11.2572 44.7043 10.9561 43.1123 10.9561H39.5411C39.326 10.9561 39.1108 10.9561 38.8527 10.9561C38.6375 10.9561 38.3794 10.9561 38.1212 10.9991C37.2176 11.0851 36.4001 11.4293 35.6687 12.0317C34.9372 12.6341 34.593 13.8388 34.593 15.732V21.8848C34.593 21.9709 34.593 22.0139 34.593 22.0569C34.593 22.1 34.593 22.143 34.593 22.186C34.593 22.7023 34.593 23.1326 34.636 23.5199C34.636 23.9071 34.7221 24.2943 34.8942 24.6385C34.9803 24.8967 35.1524 25.1979 35.4105 25.4991C35.6257 25.8003 35.9268 26.1445 36.3141 26.4887L41.1331 31.2216C41.3052 31.3937 41.4773 31.5658 41.6064 31.6949C41.7354 31.867 41.8645 31.9961 41.9506 32.1252C42.1657 32.4694 42.3378 32.8136 42.4239 33.1578C42.5099 33.5021 42.596 33.9753 42.596 34.4917V41.2899C42.596 41.3329 42.596 41.3759 42.596 41.419C42.596 41.462 42.596 42.4946 42.596 42.4946H42.1227C42.1227 42.4946 41.6494 42.5377 41.2622 42.5377C40.9179 42.5377 40.6168 42.4086 40.3586 42.1934C40.1435 41.9783 40.0144 41.6771 40.0144 41.2899V34.1905L34.6791 38.0199V41.1608C34.6791 41.2038 34.6791 41.2469 34.6791 41.2899C34.6791 41.3329 34.6791 41.3759 34.6791 41.419C34.6791 41.6771 34.6791 42.0213 34.7221 42.3656C34.7221 42.7528 34.7651 43.097 34.8512 43.4842C35.0663 44.1727 35.4966 44.8181 36.142 45.4204C36.7874 45.9798 37.9061 46.281 39.455 46.324L43.1553 46.281C44.8764 46.281 46.0381 45.9368 46.6835 45.2053C47.3289 44.5169 47.7162 43.6994 47.8452 42.8388C47.8883 42.5377 47.8883 42.2365 47.9313 41.9783C47.9313 41.7202 47.9743 41.462 47.9743 41.1608V34.1905C47.9743 33.373 47.9743 32.7276 47.9313 32.2112C47.8883 31.6949 47.7592 31.2216 47.501 30.7483C47.3289 30.4041 47.0708 30.0599 46.7696 29.6727C46.4684 29.2854 46.0811 28.8552 45.5648 28.3819L41.7785 24.8107C41.3052 24.3374 40.8749 23.8641 40.5307 23.3047C40.1435 22.7884 39.9714 22.186 39.9714 21.4546V15.8611C39.9714 15.4739 40.1004 15.2157 40.3586 15.0006C40.6168 14.7854 40.8749 14.6994 41.1761 14.6564C41.2191 14.6564 41.2191 14.6564 41.2622 14.6564C41.2622 14.6564 41.3052 14.6564 41.3482 14.6564C41.6494 14.6564 41.9506 14.7854 42.2087 15.0006C42.4669 15.2157 42.596 15.5169 42.596 15.9041V22.4012L47.9313 17.9694V15.8181C47.9313 15.775 47.9313 15.732 47.9313 15.732C47.9313 15.4739 47.9313 15.1727 47.8883 14.8285C47.8452 14.4412 47.8022 14.097 47.7162 13.7528Z" fill="white"/>
<path d="M75.3397 46.5823L76.1572 43.1402L99.3917 22.4443L79.2551 45.6357L75.3397 46.5823Z" fill="#EC6E00"/>
<path d="M78.3516 15.1299H77.6202V18.3999H78.3516V15.1299Z" fill="white"/>
<path d="M73.2843 15.4825L72.5586 15.5737L72.9664 18.8183L73.6921 18.727L73.2843 15.4825Z" fill="white"/>
<path d="M68.2418 16.7343L67.5449 16.9565L68.5384 20.0719L69.2352 19.8497L68.2418 16.7343Z" fill="white"/>
<path d="M63.5157 18.6804L62.8691 19.0225L64.3985 21.9128L65.0451 21.5707L63.5157 18.6804Z" fill="white"/>
<path d="M96.587 21.9672L94.4785 24.4668L95.0376 24.9384L97.1462 22.4388L96.587 21.9672Z" fill="white"/>
<path d="M92.4015 19.0995L90.6795 21.8794L91.3013 22.2646L93.0233 19.4847L92.4015 19.0995Z" fill="white"/>
<path d="M103.192 29.7445L100.392 31.4331L100.769 32.0595L103.57 30.3709L103.192 29.7445Z" fill="white"/>
<path d="M100.209 25.5849L97.7336 27.7222L98.2117 28.2758L100.687 26.1385L100.209 25.5849Z" fill="white"/>
<path d="M105.483 34.4237L102.418 35.562L102.673 36.2477L105.738 35.1094L105.483 34.4237Z" fill="white"/>
<path d="M107.344 44.4108L104.074 44.4478L104.082 45.1791L107.352 45.1422L107.344 44.4108Z" fill="white"/>
<path d="M106.809 39.3999L103.568 39.8345L103.666 40.5594L106.906 40.1248L106.809 39.3999Z" fill="white"/>
<path d="M87.7377 16.8462L86.6416 19.9272L87.3308 20.1724L88.4269 17.0914L87.7377 16.8462Z" fill="white"/>
<path d="M82.7703 15.6187L82.2831 18.8521L83.0063 18.961L83.4936 15.7276L82.7703 15.6187Z" fill="white"/>
</svg>
