<svg display="none" xmlns="http://www.w3.org/2000/svg">
	<symbol id="next" viewBox="0 0 39 72">
		<path
			d="M-2.92133e-06 5.16766C-3.12548e-06 0.497307 5.66351 -1.76791 8.83729 1.63304L37.6101 32.4654C39.4633 34.4512 39.4633 37.5488 37.6101 39.5346L8.8373 70.367C5.66352 73.7679 -2.17375e-08 71.5027 -2.25885e-07 66.8324L-2.92133e-06 5.16766Z" />
	</symbol>

	<symbol id="prev" viewBox="0 0 39 72">
		<path
			d="M38.5 66.8323C38.5 71.0581 33.3861 73.0883 30.5283 70.0258L1.75542 39.1935C0.0815223 37.3998 0.0815224 34.6002 1.75542 32.8065L30.5283 1.97418C33.3861 -1.08828 38.5 0.94194 38.5 5.16765L38.5 66.8323Z" />
	</symbol>

	<symbol id="burger" viewBox="0 0 39 34">
		<path
			d="M0.474243 3.64286C0.474243 1.63096 2.10521 0 4.1171 0H34.8314C36.8433 0 38.4742 1.63096 38.4742 3.64286C38.4742 5.65475 36.8433 7.28571 34.8314 7.28571H4.1171C2.10521 7.28571 0.474243 5.65475 0.474243 3.64286Z"/>
		<path
			d="M0.474243 17C0.474243 14.9881 2.10521 13.3571 4.1171 13.3571H34.8314C36.8433 13.3571 38.4742 14.9881 38.4742 17C38.4742 19.0119 36.8433 20.6429 34.8314 20.6429H4.1171C2.10521 20.6429 0.474243 19.0119 0.474243 17Z"/>
		<path
			d="M0.474243 30.3571C0.474243 28.3452 2.10521 26.7143 4.1171 26.7143H34.8314C36.8433 26.7143 38.4742 28.3452 38.4742 30.3571C38.4742 32.369 36.8433 34 34.8314 34H4.1171C2.10521 34 0.474243 32.369 0.474243 30.3571Z"/>
	</symbol>

</svg>