<svg width="50" height="56" viewBox="0 0 50 56" fill="none" xmlns="http://www.w3.org/2000/svg">
<path d="M44.2194 12.0628C43.4641 11.5895 42.6944 11.109 41.8743 10.7664C30.0659 5.82454 18.1784 6.30848 6.31961 10.505C4.58234 11.1196 2.93499 12.3101 1.58618 13.5853C-0.568325 15.62 -0.517969 18.6472 1.6761 20.6607C3.00333 21.8794 4.58953 23.0169 6.27285 23.6421C16.8116 27.5737 27.5553 27.9375 38.3566 24.8113C41.8851 23.7905 45.115 22.0631 47.604 19.2689C50.8052 15.6765 50.7908 11.1585 47.586 7.58722C45.3021 5.04387 42.3742 3.46841 39.1838 2.34157C31.1737 -0.491437 22.9621 -0.43845 14.693 0.840288C10.4632 1.49379 6.35198 2.53232 2.82708 5.08979C1.27685 6.21311 0.0611206 7.62961 0.161832 9.62896C0.190607 10.2012 0.895585 11.0984 1.40634 11.1868C1.94226 11.2786 3.07886 10.6569 3.16159 10.2118C3.55005 8.07469 5.16143 7.19159 6.84474 6.42505C13.3334 3.46841 20.2609 3.10104 27.2532 3.33418C32.6556 3.51433 37.8782 4.55993 42.4893 7.47771C48.3414 11.1832 48.1795 16.0191 42.2052 19.5763C38.3278 21.8865 34.0404 22.9992 29.5983 23.3807C21.9478 24.0342 14.3657 23.6598 7.19004 20.6042C5.53909 19.9013 3.38459 19.1524 3.43495 17.0082C3.48171 15.0088 5.50672 14.2635 7.13968 13.5605C14.2003 10.5156 21.6529 10.1624 29.1883 10.7487C34.8964 11.1938 40.2665 12.681 44.8525 16.4713C46.6617 14.0198 46.5861 13.5394 44.223 12.0628H44.2194Z" fill="#EC6E00"/>
<path d="M49.5859 40.0396C49.3953 39.9584 49.201 39.8807 49.0104 39.7994C48.1256 41.3466 47.2659 42.9115 46.3416 44.4375C45.856 45.2394 45.4208 46.2143 44.6798 46.6982C42.4606 48.1501 40.2341 49.7538 37.7703 50.6652C30.44 53.371 22.8075 53.1767 15.2326 51.9616C12.1429 51.467 9.11795 50.3402 6.20092 49.178C5.06432 48.7259 3.43856 47.2882 3.52488 46.4545C3.74069 44.4163 2.26959 44.0843 1.30204 43.1376C-0.298551 45.1758 -0.327326 47.4153 1.2301 49.3334C3.06808 51.5907 5.62903 52.767 8.33744 53.59C16.9734 56.2111 25.7569 56.7515 34.6195 54.9288C39.4284 53.9397 43.9497 52.223 47.4062 48.5704C49.7226 46.126 50.5966 43.2859 49.5823 40.0361L49.5859 40.0396Z" fill="#EC6E00"/>
<path d="M6.16134 30.8694C15.7505 34.5891 25.6382 35.02 35.6446 32.8299C40.1514 31.8444 44.3273 30.0817 47.5105 26.6234C49.7441 24.1967 50.5966 21.4061 49.4096 17.7394C48.3522 19.2018 47.23 20.2298 46.7804 21.4908C45.9962 23.6774 44.705 25.4118 42.7231 26.4716C40.4787 27.6726 38.1228 28.7676 35.6841 29.4988C29.4904 31.3498 23.1312 31.205 16.7864 30.4102C12.7364 29.9015 8.74387 29.0749 5.22976 26.8283C3.827 25.9311 2.82708 24.8502 3.61119 23.0804C2.77673 22.4481 2.02858 21.8794 1.28044 21.3107C-0.330936 23.3701 -0.453229 25.8181 1.35238 27.5843C2.71918 28.9195 4.38091 30.1806 6.15415 30.8694H6.16134Z" fill="#EC6E00"/>
<path d="M8.8266 46.4722C16.1498 48.6375 23.6312 49.1886 31.2169 48.2454C36.0834 47.6379 40.7053 46.2955 44.8093 43.5544C49.1687 40.6437 50.7872 36.9063 49.0176 32.5438C48.1364 34.0804 47.3523 35.6841 46.3416 37.1324C45.4423 38.4218 44.482 39.8241 43.2015 40.6613C41.2844 41.9153 39.1443 42.9609 36.961 43.6745C29.494 46.1119 21.8399 45.8928 14.229 44.5293C11.499 44.0418 8.82301 43.0316 6.26566 41.933C5.11827 41.442 3.50689 40.1244 3.54286 39.2378C3.6148 37.3126 2.46021 36.7474 1.29124 35.942C-0.366896 37.9131 -0.316541 40.3151 1.4495 42.3216C3.41337 44.547 6.06784 45.6597 8.8302 46.4757L8.8266 46.4722Z" fill="#EC6E00"/>
<path d="M47.5717 33.8473C49.7514 31.4134 50.6218 28.6511 49.3917 25.0374C48.345 26.514 47.4961 27.6726 46.694 28.863C45.8452 30.1135 45.3165 31.7702 44.1583 32.5791C41.9462 34.1193 39.504 35.511 36.9538 36.38C29.8141 38.8139 22.4118 38.6584 15.1031 37.3762C11.7472 36.7898 8.52448 35.3556 5.3233 34.0981C4.50682 33.7766 3.37382 32.5544 3.48892 31.9468C3.86658 29.9616 2.36311 29.5024 1.25169 28.5345C-0.402855 31.0143 -0.345306 33.3103 1.65094 35.2037C2.8307 36.3235 4.24785 37.3656 5.75132 37.9767C15.6102 41.9683 25.8037 42.2686 36.087 40.0255C40.4464 39.0753 44.5144 37.2596 47.5717 33.8473Z" fill="#EC6E00"/>
<path d="M42.608 18.1492C29.9436 13.0731 17.4878 13.6842 5.02476 18.3187C6.46709 19.7352 7.75476 20.4311 9.94163 19.7988C19.1459 17.1424 28.4509 16.8987 37.702 19.7529C39.7306 20.3781 40.9247 20.0814 42.608 18.1492Z" fill="#EC6E00"/>
<path d="M17.6712 36.6662C17.6676 36.8534 17.6604 37.0441 17.6568 37.2313C22.1097 37.7047 26.559 37.9308 30.9939 37.1466C30.9939 36.9876 30.9939 36.8251 30.9903 36.6662H17.6712Z" fill="#EC6E00"/>
<path d="M17.628 22.7095H30.8104C30.8104 22.5082 30.8104 22.3068 30.8104 22.109H17.6316C17.6316 22.3104 17.6316 22.5117 17.6316 22.7095H17.628Z" fill="#EC6E00"/>
<path d="M31.1665 30.0676C31.1737 29.8768 31.1773 29.6825 31.1845 29.4918H17.4122C17.4122 29.6825 17.4122 29.8768 17.4122 30.0676H31.1665Z" fill="#EC6E00"/>
<path d="M12.2544 26.1148C9.58912 25.9558 7.41664 23.6739 4.93842 25.758C7.15407 28.2625 9.50999 27.4041 12.2544 26.1148Z" fill="#EC6E00"/>
<path d="M12.1141 33.4234C9.49562 33.1337 7.44183 31.039 4.978 32.9606C7.08215 35.1472 7.94539 35.2249 12.1141 33.4234Z" fill="#EC6E00"/>
<path d="M11.8408 40.8274C6.84475 38.9834 6.65412 38.9728 5.04274 40.4176C7.56772 42.5017 7.79432 42.5194 11.8408 40.8274Z" fill="#EC6E00"/>
<path d="M42.4138 25.7368C40.1406 24.3415 41.3563 24.4298 35.8244 26.2561C39.486 27.9057 40.2089 27.8386 42.4138 25.7368Z" fill="#EC6E00"/>
<path d="M42.4822 32.9783C40.0687 30.9966 38.1156 33.1443 35.7669 33.4516C38.2919 34.9776 40.4895 35.2955 42.4822 32.9783Z" fill="#EC6E00"/>
<path d="M42.4606 40.301C40.1514 38.1392 38.2019 40.5306 35.677 40.6119C38.3998 42.3851 40.5255 42.4417 42.4606 40.301Z" fill="#EC6E00"/>
<path d="M49.2262 47.3023C48.6903 47.924 48.104 48.5139 47.6364 49.1851C47.3451 49.6054 46.9422 50.2978 47.1077 50.5945C47.3307 51.0007 48.1076 51.4246 48.532 51.3328C49.0572 51.2197 49.7801 50.6334 49.8592 50.1635C50.0103 49.2451 49.7729 48.2631 49.6974 47.3093C49.5427 47.3093 49.3845 47.3023 49.2298 47.2988L49.2262 47.3023Z" fill="#EC6E00"/>
</svg>
