<svg width="73" height="47" viewBox="0 0 73 47" fill="none" xmlns="http://www.w3.org/2000/svg">
<path d="M60.0534 5.54599V7.04599H60.0587V29.4318H12.9518V5.54599C12.9518 3.15891 14.66 1.5 16.4384 1.5H31.4715L31.4718 1.5C31.4737 1.49999 31.4759 1.49998 31.4824 1.50305C31.491 1.5071 31.5106 1.51865 31.535 1.54577C31.5851 1.60155 31.6389 1.70689 31.6389 1.85559V16.7939C31.6389 18.4501 32.877 20.0715 34.7382 20.0715H38.2671C40.12 20.0715 41.3663 18.4534 41.3663 16.7939V1.85559C41.3663 1.70689 41.4202 1.60155 41.4703 1.54577C41.4946 1.51865 41.5142 1.5071 41.5228 1.50305C41.5294 1.49998 41.5315 1.49999 41.5335 1.5L41.5338 1.5H56.5669C58.3452 1.5 60.0534 3.15892 60.0534 5.54599ZM71.5 38.8427V44.5052H1.5V38.8427C1.5 38.0545 2.03399 37.6645 2.38902 37.6488L2.39116 37.6487L11.4807 37.2345H61.5193L70.6053 37.6486C70.6057 37.6486 70.6061 37.6486 70.6066 37.6486C70.9741 37.6671 71.5 38.0587 71.5 38.8427Z" stroke="#EC6E00" stroke-width="3"/>
</svg>
