<svg width="58" height="58" viewBox="0 0 58 58" fill="none" xmlns="http://www.w3.org/2000/svg">
<path d="M29 0C13.0084 0 0 13.0084 0 29C0 44.9916 13.0084 58 29 58C44.9916 58 58 44.9916 58 29C58 13.0084 44.9916 0 29 0ZM29 52.7153C15.9229 52.7153 5.28474 42.0771 5.28474 29C5.28474 15.9229 15.9229 5.28474 29 5.28474C42.0771 5.28474 52.7153 15.9229 52.7153 29C52.7153 42.0771 42.0771 52.7153 29 52.7153Z" fill="#EC6E00"/>
<path d="M28.9999 12.2342C19.7569 12.2342 12.2341 19.7544 12.2341 29C12.2341 38.2457 19.7543 45.7658 28.9999 45.7658C38.2456 45.7658 45.7658 38.2457 45.7658 29C45.7658 19.7544 38.2456 12.2342 28.9999 12.2342ZM28.9999 43.1208C21.2129 43.1208 14.8765 36.7844 14.8765 28.9974C14.8765 21.2103 21.2129 14.8739 28.9999 14.8739C36.787 14.8739 43.1234 21.2103 43.1234 28.9974C43.1234 36.7844 36.787 43.1208 28.9999 43.1208Z" fill="#EC6E00"/>
</svg>
