<svg width="29" height="30" viewBox="0 0 29 30" fill="none" xmlns="http://www.w3.org/2000/svg">
<circle cx="14.3557" cy="14.9999" r="14.1186" fill="#774E97"/>
<path d="M22.0206 16.3692C22.5299 12.0159 21.7759 9.26751 20.4158 8.02443L20.4165 8.02371C18.2213 5.90087 10.8077 5.58667 8.18138 8.11905C7.00198 9.3578 6.58655 11.1758 6.54103 13.4265C6.4955 15.6779 6.44144 19.8955 10.3119 21.0396H10.3154L10.3119 22.7868C10.3119 22.7868 10.2855 23.4947 10.7308 23.637C11.2402 23.8045 11.4706 23.4759 13.0548 21.5546C15.7038 21.7879 17.7383 21.2534 17.9695 21.1754C18.5044 20.9933 21.5312 20.5867 22.0206 16.3692ZM13.3159 20.3252C13.3159 20.3252 11.6392 22.4481 11.1178 22.9992C10.9471 23.1783 10.76 23.1617 10.7628 22.8063C10.7628 22.573 10.7757 19.9056 10.7757 19.9056C7.49423 18.9507 7.68771 15.3594 7.72328 13.4807C7.75885 11.6013 8.09745 10.062 9.09617 9.02554C11.4002 6.83191 17.8997 7.32236 19.5558 8.90275C21.5802 10.7251 20.8596 15.8737 20.8639 16.0492C20.4478 19.5697 17.9951 19.7929 17.5441 19.9453C17.3513 20.0103 15.5623 20.4776 13.3159 20.3252Z" fill="white"/>
<path d="M14.2434 9.43798C13.9696 9.43798 13.9696 9.87136 14.2434 9.87497C16.3682 9.89158 18.1181 11.3954 18.1373 14.1539C18.1373 14.445 18.557 14.4414 18.5535 14.1503H18.5528C18.53 11.178 16.6193 9.45459 14.2434 9.43798Z" fill="white"/>
<path d="M17.0383 13.6967C17.0319 13.9841 17.4509 13.9979 17.4544 13.7068C17.4893 12.0679 16.4941 10.7179 14.624 10.5756C14.3501 10.5554 14.3217 10.9924 14.5948 11.0126C16.2167 11.1375 17.071 12.2614 17.0383 13.6967Z" fill="white"/>
<path d="M16.5902 15.5609C16.2388 15.3543 15.881 15.4829 15.733 15.6859L15.4236 16.0925C15.2664 16.2991 14.9726 16.2717 14.9726 16.2717C12.8286 15.696 12.2552 13.4179 12.2552 13.4179C12.2552 13.4179 12.2289 13.1094 12.4253 12.944L12.8122 12.619C13.0057 12.463 13.1281 12.0874 12.931 11.7183C12.4046 10.7526 12.0511 10.4196 11.8711 10.1639C11.6819 9.92336 11.3974 9.86919 11.1014 10.0317H11.095C10.4797 10.3972 9.80609 11.0812 10.0216 11.7855C10.3894 12.528 11.0652 14.895 13.2191 16.6834C14.2314 17.5292 15.8333 18.396 16.5133 18.596L16.5197 18.6061C17.1898 18.8329 17.8414 18.1222 18.1893 17.4786V17.4736C18.3436 17.1623 18.2924 16.8676 18.0669 16.6747C17.6671 16.2789 17.0639 15.8419 16.5902 15.5609Z" fill="white"/>
<path d="M14.9171 12.1878C15.6007 12.2282 15.9322 12.5908 15.9677 13.3355C15.9805 13.6266 16.3967 13.6064 16.3839 13.3153C16.3384 12.3431 15.839 11.8013 14.9399 11.7508C14.666 11.7342 14.6404 12.1712 14.9171 12.1878Z" fill="white"/>
</svg>
