<svg width="30" height="30" viewBox="0 0 30 30" fill="none" xmlns="http://www.w3.org/2000/svg">
<circle cx="15" cy="15" r="15" fill="#0077FF"/>
<path d="M20.6541 15.8298C20.3769 15.4709 20.4562 15.3112 20.6541 14.9903C20.6576 14.9867 22.9456 11.7446 23.1813 10.6451L23.1827 10.6444C23.2999 10.2437 23.1827 9.94922 22.6163 9.94922H20.7419C20.2648 9.94922 20.0447 10.2019 19.9269 10.4847C19.9269 10.4847 18.9726 12.8272 17.6225 14.3457C17.1868 14.7845 16.9854 14.9251 16.7475 14.9251C16.6303 14.9251 16.4482 14.7845 16.4482 14.3838V10.6444C16.4482 10.1638 16.3146 9.94922 15.9196 9.94922H12.9724C12.6731 9.94922 12.4952 10.1734 12.4952 10.3821C12.4952 10.8378 13.1702 10.9425 13.2402 12.2244V15.0057C13.2402 15.6152 13.1324 15.7272 12.8931 15.7272C12.2559 15.7272 10.7094 13.3752 9.79296 10.6832C9.60795 10.1609 9.42723 9.94995 8.9465 9.94995H7.07144C6.53642 9.94995 6.42856 10.2027 6.42856 10.4854C6.42856 10.985 7.06572 13.4689 9.39152 16.7505C10.9416 18.9906 13.1245 20.2043 15.1103 20.2043C16.3039 20.2043 16.4496 19.9348 16.4496 19.4711C16.4496 17.3307 16.3418 17.1285 16.9396 17.1285C17.2168 17.1285 17.6939 17.2692 18.8083 18.3496C20.0819 19.6308 20.2912 20.2043 21.0041 20.2043H22.8784C23.4127 20.2043 23.6834 19.9348 23.5277 19.403C23.1713 18.2844 20.7626 15.9836 20.6541 15.8298Z" fill="white"/>
</svg>
