<svg width="29" height="30" viewBox="0 0 29 30" fill="none" xmlns="http://www.w3.org/2000/svg">
<circle cx="14.1186" cy="14.9999" r="14.1186" fill="#2EC650"/>
<path d="M14.2056 7.00488H14.2016C9.84036 7.00488 6.29381 10.5524 6.29381 14.9147C6.29381 16.6449 6.85145 18.2487 7.79963 19.5508L6.81388 22.4893L9.8542 21.5174C11.1049 22.3459 12.5969 22.8245 14.2056 22.8245C18.5668 22.8245 22.1134 19.2759 22.1134 14.9147C22.1134 10.5534 18.5668 7.00488 14.2056 7.00488ZM18.8081 18.1745C18.6173 18.7134 17.8599 19.1603 17.2558 19.2908C16.8425 19.3788 16.3027 19.449 14.4854 18.6956C12.1609 17.7325 10.664 15.3705 10.5473 15.2172C10.4356 15.064 9.60801 13.9665 9.60801 12.8314C9.60801 11.6964 10.1844 11.1437 10.4168 10.9064C10.6076 10.7116 10.923 10.6226 11.2256 10.6226C11.3234 10.6226 11.4114 10.6276 11.4905 10.6315C11.7229 10.6414 11.8396 10.6553 11.9928 11.0221C12.1836 11.4818 12.6483 12.6169 12.7037 12.7336C12.7601 12.8502 12.8164 13.0084 12.7373 13.1617C12.6632 13.3199 12.5979 13.3901 12.4812 13.5245C12.3646 13.659 12.2538 13.7618 12.1372 13.9062C12.0304 14.0317 11.9098 14.1662 12.0442 14.3986C12.1787 14.626 12.6434 15.3843 13.3276 15.9934C14.2105 16.7794 14.9264 17.0305 15.1824 17.1373C15.3733 17.2164 15.6007 17.1976 15.7401 17.0493C15.9171 16.8585 16.1356 16.5421 16.358 16.2307C16.5162 16.0072 16.716 15.9795 16.9256 16.0586C17.1391 16.1328 18.2692 16.6914 18.5016 16.8071C18.7339 16.9238 18.8872 16.9791 18.9435 17.077C18.9989 17.1749 18.9989 17.6347 18.8081 18.1745Z" fill="white"/>
</svg>
